<svg xmlns="http://www.w3.org/2000/svg" width="883.024" height="802" viewBox="0 0 883.024 802">
  <g id="Group_6" data-name="Group 6" transform="translate(0)">
    <path id="Path_92" data-name="Path 92" d="M1041.51,450a399.078,399.078,0,0,1-34.16,162.2q-1.1,2.475-2.22,4.92c-.37.82-.75,1.63-1.13,2.45s-.76,1.63-1.15,2.44c-.5,1.05-1,2.09-1.51,3.13-.63,1.31-1.27,2.61-1.93,3.91q-.12.27-.27.54c-.55,1.1-1.1,2.2-1.67,3.3-.12.24-.24.48-.37.71-.65,1.28-1.32,2.56-2,3.83v.01q-1.08,2.025-2.17,4.04-2.7,4.98-5.55,9.87c-.57.97-1.13,1.94-1.71,2.9-.53.9-1.06,1.79-1.6,2.68-.37.62-.74,1.23-1.12,1.84q-.9,1.485-1.83,2.97c-.01.01-.01.01-.01.02-1.37,2.2-2.77,4.39-4.18,6.56h-.01c-.65,1.01-1.31,2.01-1.97,3.01v.01q-2.985,4.5-6.09,8.91v.01a.031.031,0,0,0-.02.01v.01l-.02.02q-2.46,3.525-5.02,6.99v.01c-1.09,1.48-2.19,2.96-3.3,4.42q-1.365,1.8-2.76,3.59c-.19.26-.39.51-.6.77v.01c-.25.33-.5.65-.77.98v.01q-5.925,7.575-12.21,14.85h-.01c-.22.27-.45.53-.68.79s-.46.52-.69.79h-.01c-.35.41-.71.82-1.07,1.23s-.72.82-1.09,1.23v.01a401.877,401.877,0,0,1-73.8,65.1q-5.43,3.735-11,7.27c-.92.59-1.84,1.17-2.77,1.75-.28.19-.56.36-.84.53-.49.31-.99.62-1.49.93s-.99.61-1.49.91c-1.99,1.22-4,2.42-6.01,3.6-.5.3-1.01.59-1.52.89s-1.01.58-1.52.87a.092.092,0,0,1-.06.04l-.02.01-.02.02h-.01c-2.52,1.45-5.05,2.88-7.61,4.26q-6.87,3.75-13.88,7.23c-1.16.58-2.33,1.15-3.5,1.72-.97.47-1.95.94-2.92,1.4-.27.13-.53.26-.8.38-.81.38-1.62.76-2.43,1.13-.88.42-1.77.82-2.65,1.22-.99.45-1.97.89-2.96,1.33-3.72,1.66-7.48,3.26-11.25,4.8a392.088,392.088,0,0,1-41.23,14.26c-.65.19-1.31.38-1.97.56q-8.985,2.52-18.1,4.61-15.915,3.66-32.12,6.01c-.02,0-.05.01-.07.01-1.29.19-2.59.37-3.88.55-.11.02-.23.04-.35.05-.01.01-.02.01-.04,0,0,0,0,.01-.01,0-1.43.19-2.86.38-4.3.56-.1.02-.2.03-.3.04-1.34.16-2.69.32-4.04.47-1.45.16-2.9.31-4.36.46-1.11.11-2.22.22-3.33.32a1.534,1.534,0,0,1-.3.03c-1.01.09-2.02.18-3.03.26-.04,0-.09.01-.13.01-.88.08-1.76.14-2.64.21q-15.525,1.23-31.35,1.22-17.175,0-34-1.43c-.04,0-.08-.01-.12-.01q-3.585-.3-7.16-.66c-.63-.06-1.25-.13-1.88-.19-.12-.01-.24-.02-.36-.04l-.58-.06c-.1-.01-.21-.02-.31-.04-.83-.09-1.66-.18-2.5-.28-.93-.11-1.87-.22-2.8-.34s-1.87-.23-2.8-.36c-.2-.02-.41-.04-.61-.08-.68-.08-1.36-.17-2.03-.27-.33-.04-.65-.09-.97-.14-.65-.09-1.29-.18-1.94-.28-.02,0-.05-.01-.07-.01a395.173,395.173,0,0,1-60.29-13.59h-.01c-1.07-.33-2.14-.67-3.21-1.01q-.48-.135-.96-.3-4.17-1.335-8.29-2.76-5.685-1.95-11.29-4.08c-1.02-.39-2.03-.78-3.05-1.17-2.03-.8-4.05-1.6-6.06-2.42q-5.145-2.1-10.22-4.33h-.01v-.01q-4.74-2.085-9.41-4.3a1.009,1.009,0,0,1-.26-.12c-.01,0-.01-.01-.02-.01-.69-.32-1.38-.65-2.07-.98l-.02-.01a396.906,396.906,0,0,1-49.49-28.26q-7.605-5.085-14.95-10.51-5.925-4.365-11.68-8.95a401.656,401.656,0,0,1-52.84-50.49h-.01v-.01c-1.13-1.29-2.23-2.57-3.35-3.87v-.01c-.16-.18-.31-.36-.46-.54-.71-.83-1.4-1.65-2.09-2.49v-.01q-1.41-1.665-2.76-3.34c-.2-.24-.39-.47-.58-.71h-.01v-.01c-.74-.9-1.47-1.81-2.19-2.72-.37-.45-.73-.91-1.09-1.37H325.7v-.01q-3.27-4.125-6.41-8.33v-.01c-.58-.77-1.15-1.54-1.71-2.32h-.01q-4.02-5.43-7.83-10.99v-.01q-1.44-2.085-2.85-4.2t-2.79-4.24h-.01q-1.425-2.19-2.82-4.4c-.05-.08-.1-.15-.14-.22q-1.38-2.175-2.72-4.38c-.72-1.17-1.43-2.33-2.12-3.5-.48-.79-.95-1.57-1.41-2.37-.17-.27-.32-.54-.47-.8-1.06-1.81-2.1-3.62-3.14-5.44-1.21-2.14-2.41-4.3-3.58-6.46-.48-.89-.96-1.79-1.43-2.69-.17-.29-.32-.58-.47-.88-.56-1.06-1.12-2.12-1.67-3.19s-1.1-2.13-1.64-3.2-1.08-2.14-1.61-3.22c-.4-.81-.8-1.63-1.19-2.44a2.106,2.106,0,0,1-.11-.21c-.18-.38-.37-.75-.54-1.13a.662.662,0,0,1-.09-.19c-.41-.84-.81-1.67-1.2-2.51-.52-1.08-1.02-2.17-1.52-3.26-.36-.76-.7-1.53-1.05-2.3q-.75-1.62-1.47-3.27c-.51-1.13-1-2.27-1.49-3.41-.13-.29-.25-.57-.37-.86-.23-.52-.45-1.04-.67-1.56-.59-1.38-1.17-2.78-1.74-4.17q-.975-2.355-1.9-4.72-.885-2.205-1.72-4.42l-.21-.54v-.01a399.238,399.238,0,0,1-19.64-70.46v-.01a399.864,399.864,0,0,1-5.32-41.48c-.06-.76-.11-1.52-.16-2.28q-.99-14.115-.97-28.34,0-6.315.2-12.57a399.144,399.144,0,0,1,88.48-238.96q3.615-4.485,7.36-8.86C409.093,103.55,518.433,49,640.513,49c142.73,0,268.05,74.57,339.1,186.88q5.55,8.73,10.62,17.78A399.064,399.064,0,0,1,1041.51,450Z" transform="translate(-158.487 -49)" fill="#f2f2f2"/>
    <path id="Path_93" data-name="Path 93" d="M834.693,764.75q-2.16,5.97-4.31,11.94c-.27.76-.55,1.51-.82,2.27q-5.49,15.21-10.99,30.43c-1.16.58-2.33,1.15-3.5,1.72-.97.47-1.95.94-2.92,1.4-.27.13-.53.26-.8.38-.81.38-1.62.76-2.43,1.13-.88.42-1.77.82-2.65,1.22-.99.45-1.97.89-2.96,1.33a13.283,13.283,0,0,1-.87-4.19,24.679,24.679,0,0,1,.79-6.68c.87-3.6,2.25-7.13,3.16-10.74.05-.17.09-.35.13-.52a39.352,39.352,0,0,0-2.66-25.69c-2.26-4.78-5.5-9.13-6.91-14.23a20.538,20.538,0,0,1,1.53-14.28,22.9,22.9,0,0,1,3.07-4.78c.29-.37.6-.72.92-1.07a20.241,20.241,0,0,1,11.14-6.25c8.21-1.46,16.79,2.91,21.38,9.77a19.6,19.6,0,0,1,3.33,9.27C838.823,753.19,836.743,759.08,834.693,764.75Z" transform="translate(-158.487 -49)" fill="#e4e4e4"/>
    <path id="Path_94" data-name="Path 94" d="M812.023,805.37c-1.88-3.47-5.03-6.51-5.63-10.41-1.95-12.52-6.65-21.5-14.44-26.59-2.26-1.47-2.62-4.72-4.01-7.06-.62-1.05-1.25-2.1-1.9-3.13q-1.575-2.565-3.28-5.03a81.7,81.7,0,0,0-7.11-9.04c-1.07-1.19-2.2-2.34-3.37-3.43l-.01-.01c-.73-.7-1.47-1.37-2.24-2.02q-.45-.39-.93-.78l-.02-.02a47.991,47.991,0,0,0-4.24-3.28c-3.39-2.29-7.22-3.88-11.15-2.61a24.357,24.357,0,0,0-4.44,2.04c-.72.41-1.43.84-2.14,1.27-.48.29-.96.58-1.44.88-.39.23-.78.46-1.17.68q-4.53,2.61-9.1,5.12c-.44.25-.88.49-1.33.73h-.01c-.31.18-.63.35-.95.52-.61.34-1.23.68-1.84,1.01q-2.745,1.485-5.5,2.94c-.94.5-1.89.98-2.84,1.46-.44.22-.88.44-1.31.67h-.01c-.16.08-.31.16-.47.24-1.3.67-2.58,1.36-3.82,2.11a31.361,31.361,0,0,0-9.19,8.43c-.48.66-.94,1.34-1.36,2.04a29.077,29.077,0,0,0-1.5,2.8c-.31.65-.6,1.3-.86,1.96v.01a31.367,31.367,0,0,0-.98,19.8v.01c.12.45.25.89.4,1.33.24.74.51,1.48.81,2.2a24.2,24.2,0,0,0,1.12,2.35v.01A44.41,44.41,0,0,0,714,802.79l.1.1,1.21,1.18c.22.21.45.42.69.62,3.46,2.97,9.05,5.22,12.21,8.27,1.69,1.63,2.68,3.48,2.29,5.79-1.04,6.13-.81,10.1.25,12.65,2.88,6.96,11.92,3.42,18.11,4.79.66-.18,1.32-.37,1.97-.56a392.12,392.12,0,0,0,41.23-14.26c3.77-1.54,7.53-3.14,11.25-4.8.99-.44,1.97-.88,2.96-1.33.88-.4,1.77-.8,2.65-1.22.81-.37,1.62-.75,2.43-1.13.27-.12.53-.25.8-.38.97-.46,1.95-.93,2.92-1.4C814.083,809.18,813.053,807.27,812.023,805.37Z" transform="translate(-158.487 -49)" fill="#e4e4e4"/>
    <path id="Path_95" data-name="Path 95" d="M738.859,708.284c2.1-6.348-.789-10.537-8.226-12.758a2.05,2.05,0,0,0-3.329.893L720.81,715.66c-6.792-1.737-11.774-.547-12.856,6.171,2.681-6.843.159-11.136-7.383-12.966a2.05,2.05,0,0,0-3.38.766l-4.271,17.33a44,44,0,1,0,45.938-18.676Z" transform="translate(-158.487 -49)" fill="#e4e4e4"/>
    <path id="Path_96" data-name="Path 96" d="M734.724,763.12a3.759,3.759,0,0,1-5.084-1.533.536.536,0,0,1,.945-.507,2.682,2.682,0,0,0,4.726-2.536.536.536,0,0,1,.945-.507A3.759,3.759,0,0,1,734.724,763.12Z" transform="translate(-158.487 -49)" fill="#fff"/>
    <ellipse id="Ellipse_76" data-name="Ellipse 76" cx="4.291" cy="1.65" rx="4.291" ry="1.65" transform="matrix(0.881, -0.473, 0.473, 0.881, 566.969, 705.351)" fill="#fff"/>
    <path id="Path_97" data-name="Path 97" d="M708.6,756.591a9.551,9.551,0,0,1,12.918-6.932,10.615,10.615,0,1,0-13.389,6.79h0Q708.361,756.526,708.6,756.591Z" transform="translate(-158.487 -49)" fill="#fff"/>
    <circle id="Ellipse_77" data-name="Ellipse 77" cx="3.652" cy="3.652" r="3.652" transform="translate(549.632 696.434)" fill="#3f3d56"/>
    <path id="Path_98" data-name="Path 98" d="M733.875,743.451a9.551,9.551,0,0,1,12.918-6.932,10.615,10.615,0,1,0-13.389,6.79h0Q733.637,743.385,733.875,743.451Z" transform="translate(-158.487 -49)" fill="#fff"/>
    <circle id="Ellipse_78" data-name="Ellipse 78" cx="3.652" cy="3.652" r="3.652" transform="translate(576.248 683.09)" fill="#3f3d56"/>
    <rect id="Rectangle_17" data-name="Rectangle 17" width="17.8" height="1.763" transform="translate(585.757 699.196) rotate(-45.539)" fill="#fff"/>
    <rect id="Rectangle_18" data-name="Rectangle 18" width="17.801" height="1.763" transform="matrix(0.846, -0.533, 0.533, 0.846, 587.123, 702.119)" fill="#fff"/>
    <rect id="Rectangle_19" data-name="Rectangle 19" width="17.8" height="1.763" transform="translate(541.532 716.917) rotate(-10.898)" fill="#fff"/>
    <rect id="Rectangle_20" data-name="Rectangle 20" width="17.801" height="1.763" transform="translate(544.46 723.614) rotate(-24.244)" fill="#fff"/>
    <path id="Path_99" data-name="Path 99" d="M204.439,494.089c-34.19-30.771-54.893-79.7-42.17-123.908a211.932,211.932,0,0,0,119.346,83.238c18.668,4.866,39.937,8.334,51.294,23.928,7.067,9.7,8.708,22.525,7.035,34.411s-6.349,23.112-10.982,34.186l.245,2.987C284.057,540.144,238.63,524.86,204.439,494.089Z" transform="translate(-158.487 -49)" fill="#e6e6e6"/>
    <path id="Path_100" data-name="Path 100" d="M163.224,370.32c8.69,36.657,29.147,70.775,57.851,95.261,6.206,5.294,12.962,10.124,20.54,13.246A44.741,44.741,0,0,0,265,481.573c7.389-.961,14.836-2.8,22.33-1.947,7.9.9,14.5,5.324,19.108,11.7,5.641,7.8,8.143,17.157,10.272,26.395,2.364,10.257,4.657,20.948,11.428,29.33.82,1.016-.8,2.229-1.623,1.215-11.781-14.584-10.17-34.773-18.7-50.888-3.982-7.52-10.253-13.886-18.892-15.465-7.554-1.381-15.235.508-22.708,1.546-7.847,1.089-15.439.826-22.967-1.833-7.7-2.72-14.66-7.3-20.974-12.408a175.743,175.743,0,0,1-36.459-41.082A184.358,184.358,0,0,1,161.21,370.55c-.3-1.266,1.716-1.488,2.015-.23Z" transform="translate(-158.487 -49)" fill="#fff"/>
    <path id="Path_101" data-name="Path 101" d="M211.325,458.115a27.178,27.178,0,0,1-35.185.679c-1.007-.829.233-2.433,1.242-1.6a25.166,25.166,0,0,0,32.729-.7c.974-.868,2.183.759,1.215,1.623Z" transform="translate(-158.487 -49)" fill="#fff"/>
    <path id="Path_102" data-name="Path 102" d="M261.32,482.554a52.383,52.383,0,0,0-11.36-36.445c-.817-1.018.807-2.233,1.623-1.215a54.486,54.486,0,0,1,11.744,37.949C263.23,484.146,261.224,483.85,261.32,482.554Z" transform="translate(-158.487 -49)" fill="#fff"/>
    <path id="Path_103" data-name="Path 103" d="M177.041,410.038a15.384,15.384,0,0,0,7.734-12.38c.08-1.3,2.086-1.008,2.007.288a17.239,17.239,0,0,1-8.525,13.715,1.048,1.048,0,0,1-1.419-.2,1.019,1.019,0,0,1,.2-1.419Z" transform="translate(-158.487 -49)" fill="#fff"/>
    <path id="Path_104" data-name="Path 104" d="M305.056,307.993c-.027.816-.053,1.631-.066,2.458a202.585,202.585,0,0,0,1.767,32.816c.1.842.216,1.695.341,2.533a213.582,213.582,0,0,0,25.54,74.371,207.422,207.422,0,0,0,17.609,26.136c9.011,11.4,19.687,23.037,24.271,36.353a35.581,35.581,0,0,1,1.221,4.231L332.832,548.4c-.168.091-.322.192-.49.284l-1.6,2.534c-.366-.4-.737-.827-1.1-1.229-.213-.232-.417-.478-.631-.711-.139-.159-.278-.319-.413-.455-.047-.053-.093-.106-.125-.149-.135-.136-.245-.276-.366-.4q-3.122-3.554-6.2-7.165c-.014-.01-.014-.01-.019-.033-15.613-18.381-29.828-38.227-40.579-59.6-.323-.643-.661-1.3-.965-1.967A197.921,197.921,0,0,1,268.39,449.5a174.981,174.981,0,0,1-4.265-17.182,145.5,145.5,0,0,1-1.538-45.466c3.741-30.185,17.094-58.839,40.655-77.452C303.845,308.922,304.439,308.459,305.056,307.993Z" transform="translate(-158.487 -49)" fill="#e6e6e6"/>
    <path id="Path_105" data-name="Path 105" d="M305.74,308.676c-15.132,34.5-19.34,74.059-11.163,110.891,1.768,7.963,4.254,15.887,8.425,22.943a44.74,44.74,0,0,0,17.019,16.273c6.478,3.681,13.531,6.7,19,11.889,5.766,5.473,8.37,12.98,8.214,20.844-.191,9.622-3.828,18.6-7.69,27.259-4.288,9.613-8.894,19.529-8.534,30.3.044,1.3-1.984,1.3-2.027-.007-.626-18.738,12.815-33.887,15.705-51.892,1.349-8.4.173-17.26-5.773-23.722-5.2-5.651-12.47-8.767-19.061-12.438-6.921-3.854-12.824-8.636-17.234-15.291-4.511-6.808-7.312-14.652-9.276-22.534a175.743,175.743,0,0,1-4.377-54.753,184.356,184.356,0,0,1,15.022-60.79c.523-1.192,2.266-.155,1.747,1.029Z" transform="translate(-158.487 -49)" fill="#fff"/>
    <path id="Path_106" data-name="Path 106" d="M291.288,407.735a27.178,27.178,0,0,1-28.5-20.642c-.305-1.268,1.651-1.8,1.957-.532a25.166,25.166,0,0,0,26.553,19.147C292.6,405.6,292.581,407.629,291.288,407.735Z" transform="translate(-158.487 -49)" fill="#fff"/>
    <path id="Path_107" data-name="Path 107" d="M316.491,457.349a52.382,52.382,0,0,0,12.872-35.939c-.039-1.3,1.988-1.3,2.027.007a54.486,54.486,0,0,1-13.471,37.371c-.862.983-2.286-.461-1.429-1.438Z" transform="translate(-158.487 -49)" fill="#fff"/>
    <path id="Path_108" data-name="Path 108" d="M292.859,348.707a15.384,15.384,0,0,0,13.629-5.229c.849-.993,2.272.451,1.429,1.438a17.239,17.239,0,0,1-15.064,5.818,1.048,1.048,0,0,1-1.01-1.017,1.019,1.019,0,0,1,1.017-1.01Z" transform="translate(-158.487 -49)" fill="#fff"/>
    <path id="Path_109" data-name="Path 109" d="M697.007,312.1c5.96-32.965-3.945-70.371-30.985-90.146A154.345,154.345,0,0,1,634.436,323.1c-8.577,11.128-19.276,22.612-18.86,36.655.259,8.738,5.033,16.852,11.3,22.949s13.963,10.475,21.57,14.784l1.191,1.829C671.71,374.121,691.047,345.06,697.007,312.1Z" transform="translate(-158.487 -49)" fill="#e6e6e6"/>
    <path id="Path_110" data-name="Path 110" d="M665.535,222.456a131.923,131.923,0,0,1,9.18,80.646A56.812,56.812,0,0,1,668.8,319.89,32.584,32.584,0,0,1,656.558,331.9c-4.682,2.742-9.79,5.005-13.724,8.838A19.951,19.951,0,0,0,637.049,356c.23,7.005,2.964,13.51,5.858,19.777,3.214,6.959,6.662,14.137,6.5,21.983-.019.951,1.457.925,1.476-.024.278-13.651-9.654-24.555-11.929-37.639-1.062-6.105-.29-12.568,3.979-17.33,3.733-4.164,9-6.5,13.763-9.238a34.769,34.769,0,0,0,12.405-11.3,52.52,52.52,0,0,0,6.541-16.5,127.99,127.99,0,0,0,2.668-39.913A134.261,134.261,0,0,0,666.8,221.69c-.392-.863-1.652-.091-1.263.766Z" transform="translate(-158.487 -49)" fill="#fff"/>
    <path id="Path_111" data-name="Path 111" d="M677,294.455a19.793,19.793,0,0,0,20.56-15.3c.21-.926-1.219-1.3-1.43-.369a18.328,18.328,0,0,1-19.154,14.2c-.948-.066-.918,1.411.024,1.476Z" transform="translate(-158.487 -49)" fill="#fff"/>
    <path id="Path_112" data-name="Path 112" d="M659.115,330.823a38.149,38.149,0,0,1-9.714-26.049c.016-.951-1.46-.925-1.476.024a39.681,39.681,0,0,0,10.164,27.086C658.725,332.591,659.748,331.527,659.115,330.823Z" transform="translate(-158.487 -49)" fill="#fff"/>
    <path id="Path_113" data-name="Path 113" d="M675.294,251.485a11.2,11.2,0,0,1-9.974-3.678c-.627-.715-1.65.35-1.027,1.061a12.555,12.555,0,0,0,11.025,4.094.763.763,0,0,0,.726-.75.742.742,0,0,0-.75-.726Z" transform="translate(-158.487 -49)" fill="#fff"/>
    <path id="Path_114" data-name="Path 114" d="M556.08,249.83c.379.458.758.916,1.134,1.385A147.546,147.546,0,0,1,570.833,270.9c.318.53.632,1.072.933,1.61a155.547,155.547,0,0,1,18.466,54.209,151.059,151.059,0,0,1,1.519,22.9c-.1,10.58-1.06,22.044,2.24,31.755a25.918,25.918,0,0,0,1.185,2.981l52.135,16.276c.137-.022.271-.033.409-.055l2.052.745c.031-.395.056-.8.087-1.2.019-.229.027-.462.046-.691.009-.154.018-.308.035-.446,0-.051.006-.1.005-.142.017-.138.018-.268.031-.395q.212-3.439.377-6.892c0-.012,0-.012,0-.027.791-17.546.124-35.312-3.219-52.412-.1-.514-.2-1.041-.322-1.562a144.13,144.13,0,0,0-6.506-22.6,127.443,127.443,0,0,0-5.208-11.795A105.964,105.964,0,0,0,615.7,276.289c-15.617-15.71-36.084-26.251-57.95-26.459C557.191,249.825,556.643,249.823,556.08,249.83Z" transform="translate(-158.487 -49)" fill="#e6e6e6"/>
    <path id="Path_115" data-name="Path 115" d="M555.991,250.528a131.924,131.924,0,0,1,55.884,58.865,56.814,56.814,0,0,1,5.382,16.967,32.585,32.585,0,0,1-2.541,16.959c-2.088,5.009-4.8,9.891-5.637,15.32a19.951,19.951,0,0,0,4.567,15.664c4.4,5.454,10.5,9,16.585,12.264,6.756,3.622,13.831,7.277,18.427,13.638.557.771,1.72-.138,1.164-.908-8-11.067-22.492-13.794-32.186-22.871-4.523-4.236-7.8-9.86-7.257-16.232.473-5.572,3.269-10.609,5.427-15.662a34.769,34.769,0,0,0,3.1-16.49,52.521,52.521,0,0,0-4.71-17.111,127.991,127.991,0,0,0-21.9-33.475,134.263,134.263,0,0,0-35.761-28.3c-.832-.453-1.374.922-.547,1.372Z" transform="translate(-158.487 -49)" fill="#fff"/>
    <path id="Path_116" data-name="Path 116" d="M608.492,301.114a19.793,19.793,0,0,0,7.2-24.6c-.39-.866-1.754-.3-1.364.566a18.328,18.328,0,0,1-6.748,22.866c-.8.518.116,1.679.908,1.164Z" transform="translate(-158.487 -49)" fill="#fff"/>
    <path id="Path_117" data-name="Path 117" d="M616.109,340.919a38.149,38.149,0,0,1-23.44-14.95c-.56-.769-1.723.14-1.164.908a39.681,39.681,0,0,0,24.423,15.508c.934.182,1.111-1.285.181-1.465Z" transform="translate(-158.487 -49)" fill="#fff"/>
    <path id="Path_118" data-name="Path 118" d="M581.261,267.831a11.2,11.2,0,0,1-10.179,3.068c-.932-.193-1.107,1.273-.181,1.465A12.555,12.555,0,0,0,582.169,269a.763.763,0,0,0,.128-1.036.742.742,0,0,0-1.036-.128Z" transform="translate(-158.487 -49)" fill="#fff"/>
    <path id="Path_119" data-name="Path 119" d="M289.761,427.018a27.215,27.215,0,0,1,27.215,27.215h0a27.218,27.218,0,0,1-22,26.71l0,44.511H277.6V427.018Z" transform="translate(-158.487 -49)" fill="#3f3d56"/>
    <path id="Path_120" data-name="Path 120" d="M956.375,687.756v9.32q-5.925,7.575-12.21,14.85c-.45.53-.91,1.05-1.38,1.58-.71.83-1.44,1.65-2.17,2.47v-28.22Z" transform="translate(-158.487 -49)" fill="#cacaca"/>
    <path id="Path_121" data-name="Path 121" d="M910.135,668.316a13.155,13.155,0,0,0-13.14,13.14v18.91a13.155,13.155,0,0,0,13.14,13.14h32.65c.47-.53.93-1.05,1.38-1.58q6.285-7.275,12.21-14.85c.26-.33.52-.66.77-.99,2.26-2.89,4.48-5.83,6.66-8.79,1.7-2.32,3.39-4.66,5.04-7.02.01-.01.02-.01.02-.02q4.14-5.88,8.07-11.94Z" transform="translate(-158.487 -49)" fill="#3f3d56"/>
    <path id="Path_122" data-name="Path 122" d="M994.206,506.456a19,19,0,0,0-6.24-1.04H982.6a19.657,19.657,0,0,0-5.77.87,19.438,19.438,0,0,0-13.61,18.52v157.75c0,.59.03,1.17.08,1.74a18.422,18.422,0,0,0,.51,3c1.7-2.32,3.39-4.66,5.04-7.02.01-.01.02-.01.02-.02q4.14-5.88,8.07-11.94c1.41-2.17,2.81-4.36,4.18-6.56a398.446,398.446,0,0,0,26.24-49.56v-87.39A19.407,19.407,0,0,0,994.206,506.456Z" transform="translate(-158.487 -49)" fill="#3f3d56"/>
    <path id="Path_123" data-name="Path 123" d="M332.346,687.756v18.83q-6.75-8.07-13.05-16.5c-.58-.77-1.15-1.55-1.72-2.33Z" transform="translate(-158.487 -49)" fill="#cacaca"/>
    <path id="Path_124" data-name="Path 124" d="M362.826,668.316H304.1q2.775,4.275,5.65,8.45,3.81,5.565,7.83,10.99c.57.78,1.14,1.56,1.72,2.33q6.315,8.43,13.05,16.5c.84,1.02,1.69,2.03,2.55,3.04q1.65,1.95,3.35,3.88h24.58a13.147,13.147,0,0,0,13.13-13.14v-18.91a13.147,13.147,0,0,0-13.13-13.14Z" transform="translate(-158.487 -49)" fill="#3f3d56"/>
    <path id="Path_125" data-name="Path 125" d="M299.316,507.606a19.509,19.509,0,0,0-8.96-2.19H285a19.181,19.181,0,0,0-7.39,1.47,19.411,19.411,0,0,0-12,17.92v67.77a398.874,398.874,0,0,0,38.49,75.74q2.775,4.275,5.65,8.45V524.806a19.421,19.421,0,0,0-10.43-17.2Z" transform="translate(-158.487 -49)" fill="#3f3d56"/>
    <path id="Path_126" data-name="Path 126" d="M359.293,751.489l17.616-4.042L369.7,677.575l-26,5.966Z" fill="#9e616a"/>
    <path id="Path_127" data-name="Path 127" d="M533.8,739.866a20.486,20.486,0,0,1-.73-3.77,23.047,23.047,0,0,0-.88-4.45,23.364,23.364,0,0,0-1.85-3.8c-.35-.64-.72-1.28-1.05-1.93a15.978,15.978,0,0,1-.86-2.01c-10.31-30.45-24.7-71.83-34.68-96.05-5.87-14.25-41.97-18.99-76.03-20.2-4.15-.15-8.27-.25-12.3-.3-1.39-.02-2.77-.04-4.14-.05-3.5-.02-6.91-.02-10.19.02-.43,0-.86,0-1.29.01q-3.585.03-6.95.1c-15.42.3-26.75,1-28.77,1.13l-17.99-11.31-3.51-2.21-.37,2.21-2.83,16.86-4.83,28.77,12.11,3.4,7.86,2.2,46.57,13.06,9.9,2.78.06.02,16.67-.03,45.58-.08,2.2,5.83a10.28,10.28,0,0,0,4.21,14.84l1.71.81,20.83,55.12a24.938,24.938,0,0,0,4.47,13.93c.35.51.73,1.01,1.13,1.5l.46.55,8.01,15.67,4.77-1.1,20.3-4.65.1-.2c.01-.03.27-.58.65-1.54v-.03C533.735,761,537.255,750.146,533.8,739.866Z" transform="translate(-158.487 -49)" fill="#2f2e41"/>
    <path id="Path_128" data-name="Path 128" d="M583.3,805.136a26.111,26.111,0,0,0-31.39-19.68l-14.07-6.35-3.94,2.77-16.34,11.46-1.35.31-4.38,1,6.05,26.37,65.62-15.05Z" transform="translate(-158.487 -49)" fill="#2f2e41"/>
    <path id="Path_129" data-name="Path 129" d="M496.256,764.476l-5.95,48.24-.2,1.58-.88,7.19c-3.43-1.4-6.85-2.85-10.23-4.34q-4.74-2.085-9.41-4.3v-48.36Z" transform="translate(-158.487 -49)" fill="#9e616a"/>
    <circle id="Ellipse_79" data-name="Ellipse 79" cx="36.073" cy="36.073" r="36.073" transform="translate(172.582 311.698)" fill="#9e616a"/>
    <path id="Path_130" data-name="Path 130" d="M500.086,782.886c-1-1.37-2.04-2.8-2.1-4.17-.23-4.83-.47-9.61-.72-14.29-.18-3.27-.36-6.5-.54-9.66-.02-.4-.05-.8-.07-1.19-.31-5.23,1.24-10.75,2.73-16.1.49-1.75.98-3.52,1.42-5.29a38.428,38.428,0,0,0,1.37-12.13c-2.56-32.39-14-62.85-19.13-67.98-7.8-7.8-43.07-25.82-65.32-36.78-3.95-1.95-7.49-3.67-10.39-5.07-2.57-1.25-4.64-2.24-6.05-2.92-1.08-.51-1.78-.84-2.02-.96l-.12-.06-8.05.9-1.29.15-7.1.8-46.19,5.18-7.13.8-10.09,1.14-9.11,1.02-.34.03-.06.34c0,.01-.02.08-.04.21a95.319,95.319,0,0,0,0,29.84c1.18,6.71,3.41,13.53,7.37,19.27.54.78,1.1,1.53,1.7,2.25a.351.351,0,0,0,.08.1c.13.16.26.32.4.48v.01a32.92,32.92,0,0,0,17.37,10.57c1,.27,2.02.49,3.07.67,11.19,1.98,23.83,3.8,36.22,5.4,5.13.66,10.22,1.28,15.14,1.86,9.85,1.16,19.05,2.14,26.63,2.92,10.62,1.08,18.08,1.75,19.74,1.89l18.55,86.54a12.683,12.683,0,0,0,2.14,15.61l1.52,1.47,1.76,8.24,5.8,7.76.73.98h25.59l.14-.17c.09-.12,9.09-11.68,8.48-25.45C502.116,785.676,501.126,784.326,500.086,782.886Z" transform="translate(-158.487 -49)" fill="#2f2e41"/>
    <path id="Path_131" data-name="Path 131" d="M499.387,492.851a13.742,13.742,0,0,0-17.31,12.016L452.1,514.235l1.25,19.6L495.5,520.014a13.816,13.816,0,0,0,3.891-27.163Z" transform="translate(-158.487 -49)" fill="#9e616a"/>
    <path id="Path_132" data-name="Path 132" d="M479.831,525.29l-22.4,8.478-.573,1.111a11.3,11.3,0,0,1-15.224,4.868h0L391.283,558.8s-22.485-22.5-38.494-42.583l5.456-33.559a64.289,64.289,0,0,1,7.923-22.088c32.831,7.2,51.677,53.095,51.677,53.095l59.17-11.29Z" transform="translate(-158.487 -49)" fill="#6c63ff"/>
    <path id="Path_133" data-name="Path 133" d="M362.015,430.916c-9.031,2.439-18.987-.8-26.035-6.955s-11.456-14.867-14-23.87c-1.86-6.594-2.743-13.913.193-20.1s10.837-10.366,16.933-7.24c-3.76-4.381-1.882-11.628,2.51-15.376s10.423-4.823,16.167-5.41c8.336-.852,16.947-.948,24.879,1.753s15.139,8.6,17.622,16.608a12.64,12.64,0,0,0,15.077-3.4,11.452,11.452,0,0,1-6.31,12.417l12.154-3.94c2.09,4.424-1.572,9.9-6.256,11.317s-9.739-.132-14.184-2.179-8.752-4.635-13.579-5.433-10.5.753-12.731,5.107c-1.17,2.28-1.231,4.951-1.91,7.422s-2.4,5.033-4.954,5.236c-1.614.128-3.195-.732-4.8-.556a5.177,5.177,0,0,0-4.054,3.961,15.2,15.2,0,0,0-.014,5.98l3.087,23.6Z" transform="translate(-158.487 -49)" fill="#2f2e41"/>
    <path id="Path_134" data-name="Path 134" d="M407.336,610.226l-1.91-2.87-13.94-20.91-.28-.41,4.31-22.36,1.34-6.98,2.93-15.19-.85-34.77-.61-24.6-.09-3.86-3.09-9.42a33.929,33.929,0,0,0-18-20.11l-20.8-9.52a10.141,10.141,0,0,0-13.431,5.028q-.14.307-.259.622c-2.85.39-15.22,2.47-25.71,10.61a39.057,39.057,0,0,0-14.48,22.62c-.02.07-.03.14-.05.21-1.39,6.21-2.43,16.01-3.1,29.29q-.675,13.17-.85,30.86a448.631,448.631,0,0,0,3.31,58.82c.23,1.86.47,3.71.72,5.57.21,1.56,1.71,3.05,3.16,4.48,1.33,1.31,2.7,2.67,2.89,3.9.17,1.08-.52,2.21-1.34,3.39-.1.15-.21.3-.31.45-1.02,1.45-2.07,2.96-1.8,4.55.63,3.58,1,7.22,1.35,10.74a113.672,113.672,0,0,0,2.1,14.42c.35,1.46.75,2.93,1.2,4.4,1.05,3.45,2.32,6.89,3.56,10.25,1.07,2.92,2.18,5.92,3.12,8.88.18.55.35,1.09.51,1.63l.08.28.29.05h.02a11.059,11.059,0,0,1,1.4-1.96.408.408,0,0,1,.09-.1q.21-.255.48-.54c2.19-2.39,6.95-6.68,17.37-13.91,2.33-1.61,4.94-3.36,7.86-5.28,10.71-7.01,25.67-16.14,46.57-27.93q7.86-4.44,16.87-9.39Z" transform="translate(-158.487 -49)" fill="#6c63ff"/>
    <path id="Path_135" data-name="Path 135" d="M519.505,830.206a26.058,26.058,0,0,0-18.53-7.67l-10.87-8.24-1.43-1.09-9.68,3.94c3.38,1.49,6.8,2.94,10.23,4.34q16.1,6.57,32.87,11.74A26.337,26.337,0,0,0,519.505,830.206Z" transform="translate(-158.487 -49)" fill="#2f2e41"/>
    <path id="Path_136" data-name="Path 136" d="M602.45,750.808,588.836,744.3l18.7-56.9L627.63,697Z" fill="#ffb6b6"/>
    <path id="Path_137" data-name="Path 137" d="M852.206,790.636q-5.94,3.705-12.03,7.2v.03l-.06.01-.02.01-1.54.38-2.21-5.84-5.1-13.47-13.9-36.7,21.61-5.33,1.22,4.95,9.14,37.07,2.62,10.6Z" transform="translate(-158.487 -49)" fill="#ffb6b6"/>
    <path id="Path_138" data-name="Path 138" d="M797.091,552.475a14.192,14.192,0,0,0,19.226,4.823,13.6,13.6,0,0,0,1.824-1.322l43.041,24.7-1.869-25.355-40.586-19.568a14.14,14.14,0,0,0-17.152-2.234,13.607,13.607,0,0,0-4.661,18.67Q797,552.333,797.091,552.475Z" transform="translate(-158.487 -49)" fill="#ffb6b6"/>
    <path id="Path_139" data-name="Path 139" d="M842.678,571.375l7.608,4.637,34.169,20.836a20.147,20.147,0,0,0,27.766-6.393l.011-.018a19.713,19.713,0,0,0,2.513-13.916l-15.187-75.873a21.053,21.053,0,0,0-27.637-15.976,20.045,20.045,0,0,0-12.647,24.351l15.88,53.846-24.342-11.349Z" transform="translate(-158.487 -49)" fill="#6c63ff"/>
    <path id="Path_140" data-name="Path 140" d="M982.786,646.186c-.01-.03-.03-.14-.06-.31l-.03-.11q-.1-.54-.24-1.2a269.79,269.79,0,0,0-7.85-29.97,92.065,92.065,0,0,0-7.47-17.34c-.1-.18-.21-.36-.32-.54l-.37-.6-3.11,1.14-.12.04-47.28,17.33-13.67,5.01-.43.16-2.33,9.5-32.69-4.23-26.64-3.45-7.65-.99a25.214,25.214,0,0,0-18.79,5.14,26.211,26.211,0,0,0-9.97,17.64c-.1.76-.16,1.53-.19,2.29l-2.31,86.17v.11l1.07,2.14,22.35,44.84h15.49l9.14-.01h7.43l-15.45-39.09.35-.53a17.189,17.189,0,0,0,1.77-15.23l1.74-5.04c3.61-10.41,1.9-15.41-.26-21.73a53.692,53.692,0,0,1-3.38-16.03l-.36-7.13c9.07,1.59,17.52,3.36,25.66,5.14q4.08.885,8.08,1.79c7.59,1.69,14.92,3.32,22.1,4.68,14.54,2.77,28.47,4.46,42.78,3.41.28-.02.56-.04.84-.07,3.48-.28,6.98-.73,10.52-1.36,1.99-.36,3.99-.77,6.01-1.25l1.69-.42a19.44,19.44,0,0,0,4.46-1.79,29.185,29.185,0,0,0,5.55-4.02c.01-.01.02-.01.02-.02q4.14-5.88,8.07-11.94c1.41-2.17,2.81-4.36,4.18-6.56C983.115,656.266,983.875,650.726,982.786,646.186Z" transform="translate(-158.487 -49)" fill="#2f2e41"/>
    <path id="Path_141" data-name="Path 141" d="M983.115,630c-.15-.64-.34-1.29-.54-1.92a136.817,136.817,0,0,0-5.54-14.02c-2.36-5.2-5.19-10.77-8.56-16.8q-2.445-4.38-5.26-9.11-1.41-2.37-2.93-4.83a2.55,2.55,0,0,0-.13-.22l-.29-.48-46.78,6.26-17.42,2.33-1.04,8.68-.25,2.15c-.01,0-.01,0,0,.01l-.7,5.86v.01l-.93,7.74-.08-.01-25.85-3.35-26.64-3.45L825.865,607a25.215,25.215,0,0,0-18.79,5.14,26.212,26.212,0,0,0-9.97,17.64c-.09.7-.15,1.42-.18,2.13l-13.5,31.99a206.4,206.4,0,0,0-15.26,60.04l-9.9,31.65,1.41.13,20.98,1.95,5.54.52,12.2-17.81c1.39-2.03,2.71-4.12,3.94-6.26a95.075,95.075,0,0,0,5.39-10.84l26.39-62.8q3.06.525,6.06,1,13.875,2.25,26.64,3.67c27.67,3.09,51.63,3.33,72.96.71q8.985-1.095,17.37-2.88,3.075-.645,6.07-1.39c.47-.11.93-.22,1.39-.34a25.519,25.519,0,0,0,17.85-16.68,26.038,26.038,0,0,0,.66-14.57Z" transform="translate(-158.487 -49)" fill="#2f2e41"/>
    <ellipse id="Ellipse_80" data-name="Ellipse 80" cx="32.359" cy="33.08" rx="32.359" ry="33.08" transform="translate(692.795 325.967)" fill="#ffb6b6"/>
    <path id="Path_142" data-name="Path 142" d="M960.476,584.426c-.05-.37-.11-.74-.19-1.11-.77-4.06-2.77-8.04-4.7-11.9-1.84-3.68-3.59-7.16-4.31-10.62-.71-3.41-.29-6.83.12-10.13.44-3.58.9-7.28-.13-10.87a266.74,266.74,0,0,0-21.4-52.86,40.188,40.188,0,0,0-33.35-28.06,9.472,9.472,0,0,0,1.07-5.46,9.26,9.26,0,0,0-3.41-6.27,8.927,8.927,0,0,0-6.59-1.92l-15.04,1.69a9.22,9.22,0,0,0-8.01,10.21,9.957,9.957,0,0,0,.5,2.18c-13.96,17.78-21.13,33.98-21.79,49.3v.01a52.215,52.215,0,0,0,.03,5.31,52.909,52.909,0,0,0,3.68,16.67,71.1,71.1,0,0,0,9.96,17.13q1.26,1.59,2.61,3.12,1.26,1.5,2.82,3.15l2.63,4.12,2.45,3.85,13.1,30.23,6.67-.22.93,6.65.22,1.55,4.32,15.47.32,1.16L898.9,614l35.26-16.74,26.36-12.52Z" transform="translate(-158.487 -49)" fill="#6c63ff"/>
    <path id="Path_143" data-name="Path 143" d="M847.351,530.436a70.781,70.781,0,0,0,12.5,20.128c.9,1.078,1.855,2.136,2.853,3.2l5.119,8.032c18.869-14.143,34.157-69.832,34.157-69.832l-21.29-4.141Z" transform="translate(-158.487 -49)" opacity="0.2"/>
    <path id="Path_144" data-name="Path 144" d="M834.462,444.217a14.225,14.225,0,0,1-4.8,19.25,13.646,13.646,0,0,1-2.025.993l1.507,49.6-21.481-13.522,1.862-45.031a14.186,14.186,0,0,1,6.11-16.2,13.575,13.575,0,0,1,18.642,4.589Q834.37,444.055,834.462,444.217Z" transform="translate(-158.487 -49)" fill="#ffb6b6"/>
    <path id="Path_145" data-name="Path 145" d="M831.028,495.341,807.406,498.7l1.016,48.918a20.468,20.468,0,0,0,10.006,17.249h0a19.611,19.611,0,0,0,23.426-2.66l55.77-53.643a21.145,21.145,0,0,0,1.558-29.036h0a20.054,20.054,0,0,0-28.261-2.378q-.238.2-.47.41a20.584,20.584,0,0,0-1.57,1.564l-36.825,42.364Z" transform="translate(-158.487 -49)" fill="#6c63ff"/>
    <path id="Path_146" data-name="Path 146" d="M852.8,789.386l-.87.16-11.76,2.17-3.83.71-6.03,1.11,2.14,8.63c2.57-1.39,5.11-2.82,7.64-4.28l.02-.01.06-.01v-.03q6.09-3.48,12.03-7.2c.28-.17.56-.34.84-.53Z" transform="translate(-158.487 -49)" fill="#2f2e41"/>
    <path id="Path_147" data-name="Path 147" d="M765.286,790.516l-14.73-7.06-2.31-1.11-3.69,9.06-25.76,5.67a6.112,6.112,0,0,0-1,11.63l25.17,10.27,7.99-7.19-1.96,9.65,9.48,3.87,10.39-33.07Z" transform="translate(-158.487 -49)" fill="#2f2e41"/>
    <path id="Path_148" data-name="Path 148" d="M970.228,393.7c-5.5-6.414-8.115-14.924-12.512-22.208s-12.049-13.8-20.132-12.108c-5.572,1.169-9.879,6.086-12.059,11.568s-2.588,11.528-2.97,17.45c.135-12.171-7.884-23.97-18.93-27.854s-24.264.448-31.205,10.227a16.866,16.866,0,0,0-22.4-.47c-6.208,5.549-7.582,16.11-3.016,23.187s14.454,9.714,21.71,5.789l2.565,2.36c-1.444,5.05,1.356,11.016,6.063,12.917,3.817,1.542,9.205,1.285,10.634,5.291,1,2.8-.867,5.786-2.852,7.937s-4.34,4.372-4.578,7.348c-.36,4.49,4.28,7.636,8.5,8.583,10.171,2.284,21.457-2.426,27.32-11.4q.169-.26.369-.52a39.279,39.279,0,0,0,7.9-30.033c-.33-2.075,0-3.618,1.433-4.109,6.183-2.124,23.5,2.334,28.747,6.362s9.441,9.359,14.49,13.648,11.485,7.6,17.9,6.428c5.135-.935,9.5-4.663,12.442-9.16s4.629-9.738,6.144-14.947C994.426,406.542,978.886,403.8,970.228,393.7Z" transform="translate(-158.487 -49)" fill="#2f2e41"/>
    <path id="Path_149" data-name="Path 149" d="M866.812,590.882v190.2q-5.43,3.735-11,7.27V603.492c0-5.36-1.8-9.71-4.01-9.72H685.312c-2.22.01-4.01,4.36-4.02,9.72v245.46c-2.22.22-4.44.43-6.66.61-.92.08-1.85.15-2.77.22-.53-.98-1.05-1.97-1.57-2.97V590.882c0-1.48.06-2.97.16-4.44.9-12.48,5.37-21.6,10.6-21.62h175a4.682,4.682,0,0,1,1.84.39c4.38,1.86,7.84,10.02,8.71,20.57C866.742,587.462,866.822,589.172,866.812,590.882Z" transform="translate(-158.487 -49)" fill="#e4e4e4"/>
    <path id="Path_150" data-name="Path 150" d="M599.682,590.882v257.31c-.15.24-.3.47-.45.71q-5.64-.57-11.23-1.31v-244.1c0-5.36-1.91-9.71-4.26-9.72H407.032c-2.35.01-4.26,4.36-4.26,9.72v169.46q-5.925-4.365-11.68-8.95V590.882c0-1.48.06-2.97.17-4.44.95-12.48,5.7-21.6,11.26-21.62h185.73a5.139,5.139,0,0,1,1.95.39c4.65,1.86,8.33,10.02,9.26,20.57C599.612,587.462,599.682,589.172,599.682,590.882Z" transform="translate(-158.487 -49)" fill="#e4e4e4"/>
    <path id="Path_151" data-name="Path 151" d="M381.974,456.372l11.581,50.955,7.4,8.106h5.339l-22-92.646L383.2,438.526v.011Z" fill="#3f3d56"/>
    <path id="Path_152" data-name="Path 152" d="M579.026,567.036a.981.981,0,0,0-.13-.22,2.011,2.011,0,0,0-.45-.64l-1.35-1.35-7.1-7.11a2.806,2.806,0,0,0-1.95-.8h-.03l-5.01.03-4.31.03-6.02.04-41,.26-26.95.17a2.785,2.785,0,0,0-2.75,2.77,2.9,2.9,0,0,0,.26,1.17l.52,1.11,1.09,2.33,1.42,3.05.7,1.5a2.775,2.775,0,0,0,2.51,1.6h88.01a2.824,2.824,0,0,0,2.54-3.94Z" transform="translate(-158.487 -49)" fill="#3f3d56"/>
    <path id="Path_153" data-name="Path 153" d="M485.267,567.874l.695,1.505a2.8,2.8,0,0,0,2.513,1.6h88.014a2.819,2.819,0,0,0,2.536-3.937.839.839,0,0,0-.127-.22Z" transform="translate(-158.487 -49)" opacity="0.17"/>
    <path id="Path_154" data-name="Path 154" d="M383.2,438.526v.011l18.842,76.9h4.25l-22-92.646Z" opacity="0.17"/>
    <path id="Path_155" data-name="Path 155" d="M571.245,272.336l-2.76-.37a2.892,2.892,0,0,0-2.13.57l-1.65,1.27-18.37,22.98a2.892,2.892,0,0,0-1.1,1.92l-1.03,7.82-25.64,195.09a2.925,2.925,0,0,0,.51,2.05l12.08,33.3.36.52.78,1.11a2.938,2.938,0,0,0,1.66,1.14l1.75.44a2.9,2.9,0,0,0,2.34-.42,2.851,2.851,0,0,0,1.24-2.02l3.13-23.78v-.01l2-15.26,1.69-12.87v-.01l27.64-210.23a2.887,2.887,0,0,0-2.486-3.238Z" transform="translate(-158.487 -49)" fill="#3f3d56"/>
    <path id="Path_156" data-name="Path 156" d="M564.7,273.807,531.154,536.971l.364.515.777,1.107a2.929,2.929,0,0,0,1.66,1.141l1.753.441a2.906,2.906,0,0,0,3.579-2.438l34.455-262.157a2.9,2.9,0,0,0-2.493-3.248l-2.767-.364a2.855,2.855,0,0,0-2.131.573Z" transform="translate(-158.487 -49)" opacity="0.17"/>
    <path id="Path_157" data-name="Path 157" d="M405.226,232.333l-17.8,25.411-21.16,161L377.735,441.5Z" fill="#6c63ff"/>
    <path id="Path_158" data-name="Path 158" d="M578.645,456.372l-11.581,50.955-7.4,8.106h-5.339l22-92.646,1.088,15.739v.011Z" fill="#3f3d56"/>
    <path id="Path_159" data-name="Path 159" d="M792.865,557.446l-67.94-.43-6.03-.04-4.3-.03-5.01-.03h-.04a2.765,2.765,0,0,0-1.94.8l-8.46,8.46a2.185,2.185,0,0,0-.45.64.979.979,0,0,0-.13.22,2.824,2.824,0,0,0,2.54,3.94h88.01a2.8,2.8,0,0,0,2.52-1.6l.69-1.5,1.42-3.05,1.61-3.44a2.741,2.741,0,0,0,.26-1.17A2.785,2.785,0,0,0,792.865,557.446Z" transform="translate(-158.487 -49)" fill="#3f3d56"/>
    <path id="Path_160" data-name="Path 160" d="M792.325,567.874l-.695,1.505a2.8,2.8,0,0,1-2.513,1.6H701.1a2.819,2.819,0,0,1-2.536-3.937.84.84,0,0,1,.127-.22Z" transform="translate(-158.487 -49)" opacity="0.17"/>
    <path id="Path_161" data-name="Path 161" d="M577.417,438.526v.011l-18.842,76.9h-4.25l22-92.646Z" opacity="0.17"/>
    <path id="Path_162" data-name="Path 162" d="M759.026,501.616l-26.67-202.91a2.893,2.893,0,0,0-1.1-1.92l-18.36-22.98-1.65-1.27a2.929,2.929,0,0,0-2.14-.57l-2.76.37a2.894,2.894,0,0,0-2.5,3.24h0l27.64,210.24v.01l1.69,12.86,2.01,15.27v.02l3.12,23.76a2.832,2.832,0,0,0,1.25,2.02,2.873,2.873,0,0,0,2.33.42l1.75-.44a2.939,2.939,0,0,0,1.66-1.14l.78-1.11.36-.52,12.08-33.3a2.876,2.876,0,0,0,.51-2.05Z" transform="translate(-158.487 -49)" fill="#3f3d56"/>
    <path id="Path_163" data-name="Path 163" d="M712.891,273.807l33.548,263.164-.364.515-.777,1.107a2.929,2.929,0,0,1-1.66,1.141l-1.753.441a2.906,2.906,0,0,1-3.579-2.438L703.85,275.579a2.9,2.9,0,0,1,2.493-3.248l2.767-.364a2.855,2.855,0,0,1,2.131.573Z" transform="translate(-158.487 -49)" opacity="0.17"/>
    <path id="Path_164" data-name="Path 164" d="M555.393,232.333l17.8,25.411,21.16,161L582.884,441.5Z" fill="#6c63ff"/>
    <path id="Path_165" data-name="Path 165" d="M382.986,605.936a8.21,8.21,0,0,1-.13,1.5c-.04.24-.09.47-.15.7a8.693,8.693,0,0,1-8.41,6.49h-37.63v89.75a8.648,8.648,0,0,1-1.77,5.25c-.86-1.01-1.71-2.02-2.55-3.04q-6.75-8.07-13.05-16.5v-75.46H302.5a8.685,8.685,0,0,1-.72-17.34q.36-.03.72-.03h71.8A8.687,8.687,0,0,1,382.986,605.936Z" transform="translate(-158.487 -49)" fill="#3f3d56"/>
    <path id="Path_166" data-name="Path 166" d="M982.615,605.936a8.694,8.694,0,0,1-5.58,8.12,8.505,8.505,0,0,1-2.43.54c-.22.02-.45.03-.67.03h-16.79v81.46c-.25.33-.51.66-.77.99q-5.925,7.575-12.21,14.85a8.622,8.622,0,0,1-4.39-7.55v-89.75h-37.64a8.5,8.5,0,0,1-3.24-.63,8.659,8.659,0,0,1-5.22-6.08v-.01a8.585,8.585,0,0,1,.7-5.86c-.01-.01-.01-.01,0-.01a8.491,8.491,0,0,1,1.54-2.16,8.692,8.692,0,0,1,6.22-2.62h71.8a8.679,8.679,0,0,1,8.68,8.679Z" transform="translate(-158.487 -49)" fill="#3f3d56"/>
    <path id="Path_167" data-name="Path 167" d="M982.041,438.6a27.215,27.215,0,0,0-27.215,27.215h0a27.218,27.218,0,0,0,22,26.71l0,44.512H994.2V438.6Z" transform="translate(-158.487 -49)" fill="#3f3d56"/>
    <path id="Path_168" data-name="Path 168" d="M506.891,537.973a13.742,13.742,0,0,0-19.845,7.084l-31.378,1.223L451.44,560.9l44.609,2.284a13.816,13.816,0,0,0,10.843-25.207Z" transform="translate(-158.487 -49)" fill="#9e616a"/>
    <path id="Path_169" data-name="Path 169" d="M481.116,564.756l-32.232-.4-4.08-.055-65.578-.826s-17.808-16.989-33.315-34.481l2.173-15.72a64.228,64.228,0,0,1,21.535-39.767c22.209,14.84,35.088,44.214,35.088,44.214l21.6,9.663h0a94.547,94.547,0,0,1,43.17,12.643l7.1,4.114Z" transform="translate(-158.487 -49)" fill="#6c63ff"/>
    <path id="Path_170" data-name="Path 170" d="M582.385,846.816h116.26q-11.9,1.74-24.01,2.75H606.4Q594.276,848.561,582.385,846.816Z" transform="translate(-158.487 -49)" fill="#ccc"/>
    <path id="Path_171" data-name="Path 171" d="M605.76,788.287c2.25-20.307,14.547-40.45,33.794-47.306a94.135,94.135,0,0,0,.869,64.624c3.078,8,7.335,16.57,4.649,24.707-1.671,5.063-5.873,8.976-10.6,11.45s-9.984,3.694-15.18,4.89l-1.014.862C609.758,828.945,603.51,808.594,605.76,788.287Z" transform="translate(-158.487 -49)" fill="#ccc"/>
    <path id="Path_172" data-name="Path 172" d="M639.751,741.362a80.459,80.459,0,0,0-19.4,45.546,34.65,34.65,0,0,0,.539,10.843,19.872,19.872,0,0,0,5.065,9.15c2.26,2.418,4.852,4.629,6.485,7.554a12.168,12.168,0,0,1,.727,9.925c-1.353,4.055-4.083,7.382-6.865,10.542-3.089,3.509-6.353,7.105-7.625,11.72-.154.559-1.013.287-.859-.271,2.212-8.028,9.915-12.675,13.521-19.928,1.683-3.384,2.356-7.3.689-10.822-1.458-3.084-4.129-5.366-6.438-7.794a21.206,21.206,0,0,1-5.286-8.763,32.032,32.032,0,0,1-.954-10.782,78.06,78.06,0,0,1,5.383-23.8,81.886,81.886,0,0,1,14.407-23.791c.379-.436.982.234.6.667Z" transform="translate(-158.487 -49)" fill="#fff"/>
    <path id="Path_173" data-name="Path 173" d="M620.525,781.456a12.072,12.072,0,0,1-9.357-12.521.451.451,0,0,1,.9.033A11.178,11.178,0,0,0,620.8,780.6c.565.126.291.985-.271.859Z" transform="translate(-158.487 -49)" fill="#fff"/>
    <path id="Path_174" data-name="Path 174" d="M624.653,805.826a23.268,23.268,0,0,0,10.21-13.538c.156-.559,1.015-.287.859.271a24.2,24.2,0,0,1-10.653,14.066C624.573,806.928,624.16,806.127,624.653,805.826Z" transform="translate(-158.487 -49)" fill="#fff"/>
    <path id="Path_175" data-name="Path 175" d="M629,756.633a6.833,6.833,0,0,0,6.47-.415c.491-.309.9.492.416.8a7.657,7.657,0,0,1-7.157.475.465.465,0,0,1-.294-.565.453.453,0,0,1,.565-.294Z" transform="translate(-158.487 -49)" fill="#fff"/>
    <path id="Path_176" data-name="Path 176" d="M698.972,776.4c-.3.2-.6.4-.9.613a89.979,89.979,0,0,0-11.385,9.136c-.278.255-.556.517-.826.779a94.869,94.869,0,0,0-20.224,28.476,92.125,92.125,0,0,0-4.872,13.123c-1.779,6.2-3.215,13.07-6.833,18.173a15.819,15.819,0,0,1-1.211,1.536l-33.307.445c-.076-.037-.153-.066-.229-.1l-1.329.079c.05-.236.108-.48.158-.717.029-.137.065-.274.093-.412.021-.091.043-.183.057-.267.007-.03.014-.061.022-.084.014-.084.036-.16.05-.236q.474-2.047.979-4.095c0-.008,0-.008.007-.015a135.46,135.46,0,0,1,11-30.078c.148-.283.3-.574.46-.857a87.919,87.919,0,0,1,7.736-12.082,77.685,77.685,0,0,1,5.1-5.989A64.629,64.629,0,0,1,659.517,781.5c11.862-6.467,25.66-9.068,38.478-5.386C698.324,776.207,698.644,776.3,698.972,776.4Z" transform="translate(-158.487 -49)" fill="#ccc"/>
    <path id="Path_177" data-name="Path 177" d="M698.9,776.827A80.462,80.462,0,0,0,656,801.516a34.652,34.652,0,0,0-6.1,8.982,19.872,19.872,0,0,0-1.465,10.356c.349,3.291,1.087,6.617.63,9.936a12.168,12.168,0,0,1-5.395,8.362c-3.522,2.423-7.7,3.436-11.828,4.284-4.579.942-9.351,1.848-13.144,4.767-.46.354-.982-.38-.523-.733,6.6-5.078,15.547-4.151,22.793-7.771,3.381-1.689,6.274-4.407,7.066-8.227.693-3.34-.066-6.77-.448-10.1a21.206,21.206,0,0,1,1.055-10.179,32.032,32.032,0,0,1,5.73-9.183,78.064,78.064,0,0,1,18.625-15.759,81.886,81.886,0,0,1,25.828-10.322c.565-.12.643.778.081.9Z" transform="translate(-158.487 -49)" fill="#fff"/>
    <path id="Path_178" data-name="Path 178" d="M659.413,797.265a12.072,12.072,0,0,1,.068-15.631c.379-.439,1.078.129.7.568a11.178,11.178,0,0,0-.033,14.54C660.522,797.184,659.786,797.7,659.413,797.265Z" transform="translate(-158.487 -49)" fill="#fff"/>
    <path id="Path_179" data-name="Path 179" d="M648.036,819.208a23.267,23.267,0,0,0,16.3-4.662c.461-.352.983.382.523.733a24.2,24.2,0,0,1-16.974,4.817c-.578-.056-.426-.944.149-.888Z" transform="translate(-158.487 -49)" fill="#fff"/>
    <path id="Path_180" data-name="Path 180" d="M681.121,782.546a6.833,6.833,0,0,0,5.416,3.564c.578.049.425.937-.149.888a7.657,7.657,0,0,1-6-3.93.465.465,0,0,1,.105-.628.453.453,0,0,1,.628.105Z" transform="translate(-158.487 -49)" fill="#fff"/>
    <circle id="Ellipse_81" data-name="Ellipse 81" cx="10.593" cy="10.593" r="10.593" transform="translate(547.17 734.508)" fill="#ccc"/>
    <path id="Path_181" data-name="Path 181" d="M750.833,835.63c-.65.19-1.31.38-1.97.56q-8.985,2.52-18.1,4.61a10.59,10.59,0,1,1,20.07-5.17Z" transform="translate(-158.487 -49)" fill="#ccc"/>
    <path id="Path_182" data-name="Path 182" d="M811.353,812.89c-.81.38-1.62.76-2.43,1.13-.88.42-1.77.82-2.65,1.22-.99.45-1.97.89-2.96,1.33-3.72,1.66-7.48,3.26-11.25,4.8-.05-.08-.1-.17-.15-.26a10.594,10.594,0,0,1,18.67-10.02,11.749,11.749,0,0,1,.77,1.8Z" transform="translate(-158.487 -49)" fill="#ccc"/>
    <circle id="Ellipse_82" data-name="Ellipse 82" cx="10.593" cy="10.593" r="10.593" transform="translate(584.531 708.507)" fill="#ccc"/>
    <path id="Path_183" data-name="Path 183" d="M656.442,187.7c-62.31,16.39-131.35,26.36-201.55,29.09a252.37,252.37,0,0,1-30.88-.21c-22.59-1.9-41.94-9-63.49-12.88-10.36-1.86-21.9-3.22-32.33-5.23q3.615-4.485,7.36-8.86c22.49,1.9,45.33,8.12,68.09,11.01,38.69,4.92,82.04-.57,111.37-14.11,14.23-6.57,25.13-14.77,39.31-21.37a18.32,18.32,0,0,1,6.17-1.89c4.49-.41,8.43,1.4,11.64,3.02,23.79,12.01,58.33,21.77,90.39,16.4C664.912,184.542,660.372,186.672,656.442,187.7Z" transform="translate(-158.487 -49)" fill="#fff"/>
    <path id="Path_184" data-name="Path 184" d="M798.312,229.967c.293-.053.586-.1.879-.146a23.905,23.905,0,0,1-3.465-2.61Z" transform="translate(-158.487 -49)" fill="#fff"/>
    <path id="Path_185" data-name="Path 185" d="M990.232,253.662q-20.085,1.6-40.38,2.39a254.391,254.391,0,0,1-30.88-.21c-22.59-1.91-41.94-9-63.49-12.88-19.75-3.55-43.75-5.26-56.29-13.14,32.41-5.61,65.99,5.81,99.41,10.06a237.377,237.377,0,0,0,81.01-4Q985.162,244.612,990.232,253.662Z" transform="translate(-158.487 -49)" fill="#fff"/>
    <path id="Path_186" data-name="Path 186" d="M688.81,403.666C657.441,296,638.978,184.984,638.978,72.839V64.712H628.556v8.127c0,112.145-18.464,223.159-49.832,330.828a57.3,57.3,0,0,0-2.281,16.042h0a15.634,15.634,0,0,0,15.634,15.634h20.845a20.845,20.845,0,1,0,41.691,0h16.221v44.928a8.959,8.959,0,1,0,2,.167V435.343h2.624a15.634,15.634,0,0,0,15.634-15.634h0a57.307,57.307,0,0,0-2.282-16.043Z" transform="translate(-158.487 -49)" fill="#fff"/>
  </g>
</svg>
