<svg id="Group_4" data-name="Group 4" xmlns="http://www.w3.org/2000/svg" width="1104" height="580.662" viewBox="0 0 1104 580.662">
  <rect id="Rectangle_5" data-name="Rectangle 5" width="1104" height="560" transform="translate(0 9.63)" fill="#6c63ff"/>
  <path id="Path_23" data-name="Path 23" d="M546.975,292.91v65.68a2.3,2.3,0,0,1-2.29,2.29h-1.63V703.03a35.7,35.7,0,0,1-35.7,35.7H293.565a35.693,35.693,0,0,1-35.69-35.7V372.88h-1.18a1.618,1.618,0,0,1-1.62-1.61V333.89a1.62,1.62,0,0,1,1.62-1.62h1.18V318.19h-1.19a1.7,1.7,0,0,1-1.69-1.7V279.62a1.694,1.694,0,0,1,1.69-1.69h1.19V258.71h-1.21a1.5,1.5,0,0,1-1.5-1.5V237.09a1.507,1.507,0,0,1,1.5-1.51h1.21V194.84a35.691,35.691,0,0,1,35.689-35.69H507.355a35.7,35.7,0,0,1,35.7,35.69v95.78h1.63A2.3,2.3,0,0,1,546.975,292.91Z" transform="translate(-48 -159.15)" fill="#3f3d56"/>
  <path id="Path_24" data-name="Path 24" d="M948.7,9.63,476.02,334.13l-32.26-46.99L848,9.63Z" opacity="0.1"/>
  <path id="Path_25" data-name="Path 25" d="M1104,9.63V56.62L439.02,513.13l-32.26-46.99L1071.75,9.63Z" opacity="0.1"/>
  <path id="Path_26" data-name="Path 26" d="M1104,147.95v69.13L590.46,569.63H489.75Z" opacity="0.1"/>
  <rect id="Rectangle_6" data-name="Rectangle 6" width="1039.83" height="2" transform="translate(30.172 578.662)" fill="#3f3d56"/>
  <rect id="Rectangle_7" data-name="Rectangle 7" width="52" height="52" transform="matrix(0.815, 0.579, -0.579, 0.815, 797.254, 386.187)" fill="#f0f0f0"/>
  <path id="Path_27" data-name="Path 27" d="M857.172,628.772a12,12,0,1,1,12-12,12,12,0,0,1-12,12Zm0-22a10,10,0,1,0,10,10A10,10,0,0,0,857.172,606.772Z" transform="translate(-48 -159.15)" fill="#3f3d56"/>
  <path id="Path_28" data-name="Path 28" d="M618.172,259.772a12,12,0,1,1,12-12,12,12,0,0,1-12,12Zm0-22a10,10,0,1,0,10,10,10,10,0,0,0-10-10Z" transform="translate(-48 -159.15)" fill="#f0f0f0"/>
  <rect id="Rectangle_8" data-name="Rectangle 8" width="2" height="74.411" transform="translate(137.147 506.095)" fill="#3f3d56"/>
  <circle id="Ellipse_64" data-name="Ellipse 64" cx="10.523" cy="10.523" r="10.523" transform="translate(127.625 495.571)" fill="#3f3d56"/>
  <path id="Path_29" data-name="Path 29" d="M186.148,711.106s-1.5-32.332-32.32-28.574" transform="translate(-48 -159.15)" fill="#3f3d56"/>
  <rect id="Rectangle_9" data-name="Rectangle 9" width="39.823" height="8.086" rx="2.542" transform="translate(325.479 18.307)" fill="#e6e8ec"/>
  <circle id="Ellipse_65" data-name="Ellipse 65" cx="4.587" cy="4.587" r="4.587" transform="translate(371.323 17.763)" fill="#e6e8ec"/>
  <path id="Path_30" data-name="Path 30" d="M525.96,201.9V705.99a22.651,22.651,0,0,1-22.65,22.64H298.66a22.611,22.611,0,0,1-22.65-22.64V201.9a22.649,22.649,0,0,1,22.651-22.65H329.29v3.93a18.65,18.65,0,0,0,18.65,18.65H452.02a18.65,18.65,0,0,0,18.65-18.65v-3.93h32.64A22.643,22.643,0,0,1,525.96,201.9Z" transform="translate(-48 -159.15)" fill="#6c63ff"/>
  <rect id="Rectangle_10" data-name="Rectangle 10" width="232" height="113" transform="translate(238 168.63)" fill="#3f3d56"/>
  <rect id="Rectangle_11" data-name="Rectangle 11" width="232" height="113" transform="translate(238 356.63)" fill="#3f3d56"/>
  <circle id="Ellipse_66" data-name="Ellipse 66" cx="20" cy="20" r="20" transform="translate(426 61.63)" fill="#fff"/>
  <path id="Path_31" data-name="Path 31" d="M455,80.987h-8.357V72.63h-1.286v8.357H437v1.286h8.357V90.63h1.286V82.273H455Z" fill="#3f3d56"/>
  <path id="Path_32" data-name="Path 32" d="M379.409,405.371c6.073,22.45,26.875,36.354,26.875,36.354s10.955-22.495,4.882-44.945-26.875-36.354-26.875-36.354S373.335,382.921,379.409,405.371Z" transform="translate(-48 -159.15)" fill="#fff"/>
  <path id="Path_33" data-name="Path 33" d="M388.333,400.546c16.665,16.223,18.7,41.16,18.7,41.16s-24.984-1.364-41.648-17.587-18.7-41.16-18.7-41.16S371.668,384.323,388.333,400.546Z" transform="translate(-48 -159.15)" fill="#6c63ff"/>
  <path id="Path_34" data-name="Path 34" d="M379.409,593.371c6.073,22.45,26.875,36.354,26.875,36.354s10.955-22.495,4.882-44.945-26.875-36.354-26.875-36.354S373.335,570.921,379.409,593.371Z" transform="translate(-48 -159.15)" fill="#fff"/>
  <path id="Path_35" data-name="Path 35" d="M388.333,588.546c16.665,16.222,18.7,41.16,18.7,41.16s-24.984-1.364-41.648-17.587-18.7-41.16-18.7-41.16S371.668,572.323,388.333,588.546Z" transform="translate(-48 -159.15)" fill="#6c63ff"/>
  <path id="Path_36" data-name="Path 36" d="M434.657,593.371c-6.073,22.45-26.875,36.354-26.875,36.354S396.827,607.23,402.9,584.78s26.875-36.354,26.875-36.354S440.731,570.921,434.657,593.371Z" transform="translate(-48 -159.15)" fill="#fff"/>
  <path id="Path_37" data-name="Path 37" d="M425.733,588.546c-16.665,16.222-18.7,41.16-18.7,41.16s24.984-1.364,41.648-17.587,18.7-41.16,18.7-41.16S442.4,572.323,425.733,588.546Z" transform="translate(-48 -159.15)" fill="#6c63ff"/>
  <path id="Path_38" data-name="Path 38" d="M1024,280.062h-19.741V260.321H1024Zm-18.223-1.519h16.7v-16.7h-16.7Z" transform="translate(-48 -159.15)" fill="#3f3d56"/>
  <path id="Path_39" data-name="Path 39" d="M1035.64,727.142l-13.465-14.436,14.436-13.465,13.465,14.436Zm-11.32-14.362L1035.714,725l12.215-11.393-11.394-12.215Z" transform="translate(-48 -159.15)" fill="#f0f0f0"/>
  <circle id="Ellipse_67" data-name="Ellipse 67" cx="10.079" cy="10.079" r="10.079" transform="translate(127.231 91.228)" fill="#f0f0f0"/>
  <path id="Path_40" data-name="Path 40" d="M185.31,289.573a29.116,29.116,0,1,1,29.116-29.116,29.116,29.116,0,0,1-29.116,29.116Zm0-55.992a26.876,26.876,0,1,0,26.876,26.876,26.876,26.876,0,0,0-26.876-26.876Z" transform="translate(-48 -159.15)" fill="#2f2e41"/>
  <rect id="Rectangle_12" data-name="Rectangle 12" width="328" height="27" transform="translate(646 214.63)" fill="#f0f0f0"/>
  <rect id="Rectangle_13" data-name="Rectangle 13" width="245" height="10.457" transform="translate(687.5 277.63)" fill="#f0f0f0"/>
  <rect id="Rectangle_14" data-name="Rectangle 14" width="245" height="10.457" transform="translate(687.5 294.477)" fill="#f0f0f0"/>
  <rect id="Rectangle_15" data-name="Rectangle 15" width="245" height="10.457" transform="translate(687.5 311.325)" fill="#f0f0f0"/>
  <rect id="Rectangle_16" data-name="Rectangle 16" width="245" height="10.457" transform="translate(687.5 328.173)" fill="#f0f0f0"/>
</svg>
