<svg xmlns="http://www.w3.org/2000/svg" width="980" height="489.481" viewBox="0 0 980 489.481">
  <g id="Group_3" data-name="Group 3" transform="translate(0 0)">
    <path id="Path_2" data-name="Path 2" d="M317.06,205.26a205.979,205.979,0,0,0-77.685,15.067c-.994.407-1.991.816-2.988,1.235A206.781,206.781,0,0,0,110,412.32V638.26a9.01,9.01,0,0,0,9,9l.179.016c173.467,31.5,342.106,47.465,501.372,47.465q3.582,0,7.156-.011c156.555-.477,308.994-16.439,453.083-47.447l.21-.022a9.01,9.01,0,0,0,9-9v-424a9.01,9.01,0,0,0-9-9Z" transform="translate(-110 -205.26)" fill="#6c63ff"/>
    <path id="Path_40" data-name="Path 40" d="M855.8,385.452a5.946,5.946,0,1,0,0,11.893H1004.89a5.947,5.947,0,0,0,.2-11.892q-.1,0-.2,0Z" transform="translate(-110 -205.26)" fill="#3f3d56"/>
    <path id="Path_3" data-name="Path 3" d="M1038.69,383.8a1.17,1.17,0,0,0,0,1.655l5.023,5.023H1031.33a1.17,1.17,0,1,0,0,2.34h12.39l-5.023,5.023a1.17,1.17,0,1,0,1.655,1.655l7.02-7.02a1.17,1.17,0,0,0,0-1.655l-7.02-7.02a1.17,1.17,0,0,0-1.662,0Z" transform="translate(-110 -205.26)" fill="#fff"/>
    <path id="Path_4" data-name="Path 4" d="M821.927,383.8a1.17,1.17,0,0,1,0,1.655l-5.023,5.023H829.29a1.17,1.17,0,0,1,0,2.34H816.905l5.023,5.023a1.17,1.17,0,1,1-1.655,1.655l-7.02-7.02a1.17,1.17,0,0,1,0-1.655l7.02-7.02a1.17,1.17,0,0,1,1.654,0Z" transform="translate(-110 -205.26)" fill="#fff"/>
    <g id="Group_1" data-name="Group 1" opacity="0.4">
      <circle id="Ellipse_1" data-name="Ellipse 1" cx="6.39" cy="6.39" r="6.39" transform="translate(745.43 44)" fill="#fff"/>
      <circle id="Ellipse_2" data-name="Ellipse 2" cx="6.39" cy="6.39" r="6.39" transform="translate(772.055 44)" fill="#fff"/>
      <circle id="Ellipse_3" data-name="Ellipse 3" cx="6.39" cy="6.39" r="6.39" transform="translate(798.679 44)" fill="#fff"/>
      <circle id="Ellipse_4" data-name="Ellipse 4" cx="6.39" cy="6.39" r="6.39" transform="translate(825.304 44)" fill="#fff"/>
      <circle id="Ellipse_5" data-name="Ellipse 5" cx="6.39" cy="6.39" r="6.39" transform="translate(851.928 44)" fill="#fff"/>
      <circle id="Ellipse_6" data-name="Ellipse 6" cx="6.39" cy="6.39" r="6.39" transform="translate(878.553 44)" fill="#fff"/>
      <circle id="Ellipse_7" data-name="Ellipse 7" cx="6.39" cy="6.39" r="6.39" transform="translate(905.177 44)" fill="#fff"/>
      <circle id="Ellipse_8" data-name="Ellipse 8" cx="6.39" cy="6.39" r="6.39" transform="translate(745.43 64.235)" fill="#fff"/>
      <circle id="Ellipse_9" data-name="Ellipse 9" cx="6.39" cy="6.39" r="6.39" transform="translate(772.055 64.235)" fill="#fff"/>
      <circle id="Ellipse_10" data-name="Ellipse 10" cx="6.39" cy="6.39" r="6.39" transform="translate(798.679 64.235)" fill="#fff"/>
      <circle id="Ellipse_11" data-name="Ellipse 11" cx="6.39" cy="6.39" r="6.39" transform="translate(825.304 64.235)" fill="#fff"/>
      <circle id="Ellipse_12" data-name="Ellipse 12" cx="6.39" cy="6.39" r="6.39" transform="translate(851.928 64.235)" fill="#fff"/>
      <circle id="Ellipse_13" data-name="Ellipse 13" cx="6.39" cy="6.39" r="6.39" transform="translate(878.553 64.235)" fill="#fff"/>
      <circle id="Ellipse_14" data-name="Ellipse 14" cx="6.39" cy="6.39" r="6.39" transform="translate(905.177 64.235)" fill="#fff"/>
      <circle id="Ellipse_15" data-name="Ellipse 15" cx="6.39" cy="6.39" r="6.39" transform="translate(745.43 84.469)" fill="#fff"/>
      <circle id="Ellipse_16" data-name="Ellipse 16" cx="6.39" cy="6.39" r="6.39" transform="translate(772.055 84.469)" fill="#fff"/>
      <circle id="Ellipse_17" data-name="Ellipse 17" cx="6.39" cy="6.39" r="6.39" transform="translate(798.679 84.469)" fill="#fff"/>
      <circle id="Ellipse_18" data-name="Ellipse 18" cx="6.39" cy="6.39" r="6.39" transform="translate(825.304 84.469)" fill="#fff"/>
      <circle id="Ellipse_19" data-name="Ellipse 19" cx="6.39" cy="6.39" r="6.39" transform="translate(851.928 84.469)" fill="#fff"/>
      <circle id="Ellipse_20" data-name="Ellipse 20" cx="6.39" cy="6.39" r="6.39" transform="translate(878.553 84.469)" fill="#fff"/>
      <circle id="Ellipse_21" data-name="Ellipse 21" cx="6.39" cy="6.39" r="6.39" transform="translate(905.177 84.469)" fill="#fff"/>
      <circle id="Ellipse_22" data-name="Ellipse 22" cx="6.39" cy="6.39" r="6.39" transform="translate(745.43 104.704)" fill="#fff"/>
      <circle id="Ellipse_23" data-name="Ellipse 23" cx="6.39" cy="6.39" r="6.39" transform="translate(772.055 104.704)" fill="#fff"/>
      <circle id="Ellipse_24" data-name="Ellipse 24" cx="6.39" cy="6.39" r="6.39" transform="translate(745.43 124.939)" fill="#fff"/>
      <circle id="Ellipse_25" data-name="Ellipse 25" cx="6.39" cy="6.39" r="6.39" transform="translate(772.055 124.939)" fill="#fff"/>
      <circle id="Ellipse_26" data-name="Ellipse 26" cx="6.39" cy="6.39" r="6.39" transform="translate(798.679 124.939)" fill="#fff"/>
      <circle id="Ellipse_27" data-name="Ellipse 27" cx="6.39" cy="6.39" r="6.39" transform="translate(798.679 104.704)" fill="#fff"/>
      <circle id="Ellipse_28" data-name="Ellipse 28" cx="6.39" cy="6.39" r="6.39" transform="translate(825.304 104.704)" fill="#fff"/>
      <circle id="Ellipse_29" data-name="Ellipse 29" cx="6.39" cy="6.39" r="6.39" transform="translate(851.928 104.704)" fill="#fff"/>
      <circle id="Ellipse_30" data-name="Ellipse 30" cx="6.39" cy="6.39" r="6.39" transform="translate(878.553 104.704)" fill="#fff"/>
      <circle id="Ellipse_31" data-name="Ellipse 31" cx="6.39" cy="6.39" r="6.39" transform="translate(905.177 104.704)" fill="#fff"/>
    </g>
    <path id="Path_5" data-name="Path 5" d="M770.157,580.719a35.273,35.273,0,1,1,35.273-35.273A35.273,35.273,0,0,1,770.157,580.719Zm0-68.545a33.273,33.273,0,1,0,33.273,33.273,33.273,33.273,0,0,0-33.273-33.273Z" transform="translate(-110 -205.26)" fill="#3f3d56"/>
    <path id="Path_6" data-name="Path 6" d="M783.681,542.065H773.538V531.923a3.381,3.381,0,0,0-6.762,0v10.142H756.634a3.381,3.381,0,0,0,0,6.761h10.142v10.142a3.381,3.381,0,0,0,6.762,0V548.827H783.68a3.381,3.381,0,1,0,0-6.761Z" transform="translate(-110 -205.26)" fill="#fff"/>
    <g id="Group_2" data-name="Group 2" opacity="0.4">
      <circle id="Ellipse_32" data-name="Ellipse 32" cx="5.024" cy="5.024" r="5.024" transform="translate(49 369.742)" fill="#fff"/>
      <circle id="Ellipse_33" data-name="Ellipse 33" cx="5.024" cy="5.024" r="5.024" transform="translate(49 348.809)" fill="#fff"/>
      <circle id="Ellipse_34" data-name="Ellipse 34" cx="5.024" cy="5.024" r="5.024" transform="translate(49 327.876)" fill="#fff"/>
      <circle id="Ellipse_35" data-name="Ellipse 35" cx="5.024" cy="5.024" r="5.024" transform="translate(49 306.943)" fill="#fff"/>
      <circle id="Ellipse_36" data-name="Ellipse 36" cx="5.024" cy="5.024" r="5.024" transform="translate(49 286.01)" fill="#fff"/>
      <circle id="Ellipse_37" data-name="Ellipse 37" cx="5.024" cy="5.024" r="5.024" transform="translate(49 265.077)" fill="#fff"/>
      <circle id="Ellipse_38" data-name="Ellipse 38" cx="5.024" cy="5.024" r="5.024" transform="translate(49 244.144)" fill="#fff"/>
      <circle id="Ellipse_39" data-name="Ellipse 39" cx="5.024" cy="5.024" r="5.024" transform="translate(64.909 369.742)" fill="#fff"/>
      <circle id="Ellipse_40" data-name="Ellipse 40" cx="5.024" cy="5.024" r="5.024" transform="translate(64.909 348.809)" fill="#fff"/>
      <circle id="Ellipse_41" data-name="Ellipse 41" cx="5.024" cy="5.024" r="5.024" transform="translate(64.909 327.876)" fill="#fff"/>
      <circle id="Ellipse_42" data-name="Ellipse 42" cx="5.024" cy="5.024" r="5.024" transform="translate(64.909 306.943)" fill="#fff"/>
      <circle id="Ellipse_43" data-name="Ellipse 43" cx="5.024" cy="5.024" r="5.024" transform="translate(64.909 286.01)" fill="#fff"/>
      <circle id="Ellipse_44" data-name="Ellipse 44" cx="5.024" cy="5.024" r="5.024" transform="translate(64.909 265.077)" fill="#fff"/>
      <circle id="Ellipse_45" data-name="Ellipse 45" cx="5.024" cy="5.024" r="5.024" transform="translate(64.909 244.144)" fill="#fff"/>
      <circle id="Ellipse_46" data-name="Ellipse 46" cx="5.024" cy="5.024" r="5.024" transform="translate(80.818 369.742)" fill="#fff"/>
      <circle id="Ellipse_47" data-name="Ellipse 47" cx="5.024" cy="5.024" r="5.024" transform="translate(80.818 348.809)" fill="#fff"/>
      <circle id="Ellipse_48" data-name="Ellipse 48" cx="5.024" cy="5.024" r="5.024" transform="translate(80.818 327.876)" fill="#fff"/>
      <circle id="Ellipse_49" data-name="Ellipse 49" cx="5.024" cy="5.024" r="5.024" transform="translate(80.818 306.943)" fill="#fff"/>
      <circle id="Ellipse_50" data-name="Ellipse 50" cx="5.024" cy="5.024" r="5.024" transform="translate(80.818 286.01)" fill="#fff"/>
      <circle id="Ellipse_51" data-name="Ellipse 51" cx="5.024" cy="5.024" r="5.024" transform="translate(80.818 265.077)" fill="#fff"/>
      <circle id="Ellipse_52" data-name="Ellipse 52" cx="5.024" cy="5.024" r="5.024" transform="translate(80.818 244.144)" fill="#fff"/>
      <circle id="Ellipse_53" data-name="Ellipse 53" cx="5.024" cy="5.024" r="5.024" transform="translate(96.727 369.742)" fill="#fff"/>
      <circle id="Ellipse_54" data-name="Ellipse 54" cx="5.024" cy="5.024" r="5.024" transform="translate(96.727 348.809)" fill="#fff"/>
      <circle id="Ellipse_55" data-name="Ellipse 55" cx="5.024" cy="5.024" r="5.024" transform="translate(112.636 369.742)" fill="#fff"/>
      <circle id="Ellipse_56" data-name="Ellipse 56" cx="5.024" cy="5.024" r="5.024" transform="translate(112.636 348.809)" fill="#fff"/>
      <circle id="Ellipse_57" data-name="Ellipse 57" cx="5.024" cy="5.024" r="5.024" transform="translate(112.636 327.876)" fill="#fff"/>
      <circle id="Ellipse_58" data-name="Ellipse 58" cx="5.024" cy="5.024" r="5.024" transform="translate(96.727 327.876)" fill="#fff"/>
      <circle id="Ellipse_59" data-name="Ellipse 59" cx="5.024" cy="5.024" r="5.024" transform="translate(96.727 306.943)" fill="#fff"/>
      <circle id="Ellipse_60" data-name="Ellipse 60" cx="5.024" cy="5.024" r="5.024" transform="translate(96.727 286.01)" fill="#fff"/>
      <circle id="Ellipse_61" data-name="Ellipse 61" cx="5.024" cy="5.024" r="5.024" transform="translate(96.727 265.077)" fill="#fff"/>
      <circle id="Ellipse_62" data-name="Ellipse 62" cx="5.024" cy="5.024" r="5.024" transform="translate(96.727 244.144)" fill="#fff"/>
    </g>
    <path id="Path_7" data-name="Path 7" d="M607.408,238.262H273.666a6.189,6.189,0,0,0-6.182,6.182V529.827a6.189,6.189,0,0,0,6.182,6.182H607.408a6.189,6.189,0,0,0,6.182-6.182V244.444a6.189,6.189,0,0,0-6.182-6.182Zm3.7,291.566a3.718,3.718,0,0,1-3.7,3.716H273.666a3.711,3.711,0,0,1-3.7-3.716V244.444a3.711,3.711,0,0,1,3.7-3.716H607.408a3.718,3.718,0,0,1,3.7,3.716Z" transform="translate(-110 -205.26)" fill="#3f3d56"/>
    <path id="Path_8" data-name="Path 8" d="M350.7,485.266c0,.44-.012.88-.035,1.308a25.175,25.175,0,0,1-50.281,0c-.023-.428-.035-.868-.035-1.308a25.175,25.175,0,1,1,50.35,0Z" transform="translate(-110 -205.26)" fill="#fff"/>
    <path id="Path_9" data-name="Path 9" d="M581.475,468.479H383.663a4.2,4.2,0,0,0,0,8.394H581.475a4.2,4.2,0,1,0,0-8.394Z" transform="translate(-110 -205.26)" fill="#3f3d56"/>
    <path id="Path_10" data-name="Path 10" d="M468.78,493.66H383.663a4.191,4.191,0,0,0,0,8.382H468.78a4.191,4.191,0,1,0,0-8.382Z" transform="translate(-110 -205.26)" fill="#fff"/>
    <path id="Path_11" data-name="Path 11" d="M686.7,438.841H352.958a8.559,8.559,0,0,1-8.549-8.55V283.829a8.559,8.559,0,0,1,8.549-8.549H686.7a8.559,8.559,0,0,1,8.549,8.549V430.291A8.559,8.559,0,0,1,686.7,438.841ZM352.958,278.28a5.555,5.555,0,0,0-5.549,5.549V430.291a5.556,5.556,0,0,0,5.549,5.55H686.7a5.556,5.556,0,0,0,5.549-5.55V283.829a5.555,5.555,0,0,0-5.549-5.549Z" transform="translate(-110 -205.26)" fill="#fff"/>
    <path id="Path_12" data-name="Path 12" d="M420.924,328.7a4.2,4.2,0,1,0,0,8.392H618.732a4.2,4.2,0,0,0,0-8.392Z" transform="translate(-110 -205.26)" fill="#fff"/>
    <path id="Path_13" data-name="Path 13" d="M420.924,353.012a4.2,4.2,0,1,0,0,8.392H618.732a4.2,4.2,0,0,0,0-8.392Z" transform="translate(-110 -205.26)" fill="#fff"/>
    <path id="Path_14" data-name="Path 14" d="M420.924,377.03a4.2,4.2,0,0,0,0,8.392h85.117a4.2,4.2,0,1,0,0-8.392Z" transform="translate(-110 -205.26)" fill="#fff"/>
    <path id="Path_15" data-name="Path 15" d="M741.724,500.893,708.2,453.586l10.851,2.261a1.5,1.5,0,0,0,.612-2.939L703.5,449.541l-2.183,16.371a1.5,1.5,0,0,0,2.976.4l1.463-10.993,33.523,47.312a1.5,1.5,0,1,0,2.447-1.734Z" transform="translate(-110 -205.26)" fill="#fff"/>
    <path id="Path_16" data-name="Path 16" d="M559.666,638.58H321.409A4.417,4.417,0,0,1,317,634.168v-59.1a4.417,4.417,0,0,1,4.412-4.412H559.666a4.417,4.417,0,0,1,4.412,4.412v59.1A4.417,4.417,0,0,1,559.666,638.58ZM321.409,572.419a2.65,2.65,0,0,0-2.647,2.647v59.1a2.65,2.65,0,0,0,2.647,2.647H559.666a2.65,2.65,0,0,0,2.647-2.647v-59.1a2.65,2.65,0,0,0-2.647-2.647Z" transform="translate(-110 -205.26)" fill="#3f3d56"/>
    <circle id="Ellipse_63" data-name="Ellipse 63" cx="17.973" cy="17.973" r="17.973" transform="translate(230.456 379.117)" fill="#fff"/>
    <path id="Path_17" data-name="Path 17" d="M399.938,590.368a3,3,0,1,0,0,5.991H541.153a3,3,0,1,0,0-5.991Z" transform="translate(-110 -205.26)" fill="#fff"/>
    <path id="Path_18" data-name="Path 18" d="M399.938,608.341a3,3,0,1,0,0,5.991H460.7a3,3,0,1,0,0-5.991Z" transform="translate(-110 -205.26)" fill="#fff"/>
    <path id="Path_19" data-name="Path 19" d="M874.024,428.016H979.917a4.417,4.417,0,0,1,4.412,4.412V542.71a4.417,4.417,0,0,1-4.412,4.412H874.024a4.417,4.417,0,0,1-4.412-4.412V432.428a4.417,4.417,0,0,1,4.412-4.412ZM979.917,545.358a2.65,2.65,0,0,0,2.647-2.647V432.428a2.65,2.65,0,0,0-2.647-2.647H874.024a2.65,2.65,0,0,0-2.647,2.647V542.71a2.65,2.65,0,0,0,2.647,2.647Z" transform="translate(-110 -205.26)" fill="#3f3d56"/>
    <path id="Path_20" data-name="Path 20" d="M957.353,524.38a3,3,0,0,0,0-5.991H896.588a3,3,0,0,0,0,5.991Z" transform="translate(-110 -205.26)" fill="#fff"/>
    <path id="Path_21" data-name="Path 21" d="M957.353,506.731a3,3,0,0,0,0-5.991H896.588a3,3,0,0,0,0,5.991Z" transform="translate(-110 -205.26)" fill="#fff"/>
    <path id="Path_22" data-name="Path 22" d="M926.97,450.758a18.855,18.855,0,1,1-18.855,18.855A18.855,18.855,0,0,1,926.97,450.758Z" transform="translate(-110 -205.26)" fill="#fff"/>
  </g>
</svg>
