<svg xmlns="http://www.w3.org/2000/svg" width="876.276" height="661.473" viewBox="0 0 876.276 661.473">
  <g id="Group_5" data-name="Group 5" transform="translate(0 0)">
    <path id="Path_41" data-name="Path 41" d="M685.834,138.654c7.516,16-8.411,20.526-26.655,29.1s-31.9,17.943-39.414,1.947-13.615-47.743,12.2-59.871C658.66,97.284,678.318,122.659,685.834,138.654Z" transform="translate(-180.864 -106.46)" fill="#2f2e41"/>
    <circle id="Ellipse_68" data-name="Ellipse 68" cx="24.561" cy="24.561" r="24.561" transform="translate(443.185 14.528)" fill="#ffb8b8"/>
    <path id="Path_42" data-name="Path 42" d="M770.29,254.473c-.85-1.11-1.7-2.2-2.56-3.26q-1.665-2.07-3.35-4.01c-12.73-14.69-26.27-23.94-41.18-24.93h-.02l-.22-.02-29.71,28.96-10.1,9.84.22.54,5.45,13.57h95.49a234.818,234.818,0,0,0-14.02-20.69Z" transform="translate(-180.864 -106.46)" fill="#2f2e41"/>
    <path id="Path_43" data-name="Path 43" d="M621.9,155.438h0l8.792-4.131-1.225-12.683,5.879,10.5,4.2-1.975-.714-7.4,3.43,6.123L673.49,131.2h0A26,26,0,0,0,638.9,118.722l-4.525,2.127A26,26,0,0,0,621.9,155.438Z" transform="translate(-180.864 -106.46)" fill="#2f2e41"/>
    <path id="Path_44" data-name="Path 44" d="M825.39,601.261H312.552a16.519,16.519,0,0,1-16.5-16.5V276.607a12.1,12.1,0,0,1,12.088-12.088H829.593a12.311,12.311,0,0,1,12.3,12.3V584.761a16.519,16.519,0,0,1-16.5,16.5Z" transform="translate(-180.864 -106.46)" fill="#f2f2f2"/>
    <path id="Path_45" data-name="Path 45" d="M328.552,584.761H809.391a16,16,0,0,0,16-16V307.213a16,16,0,0,0-16-16H328.552a16,16,0,0,0-16,16V568.761A16,16,0,0,0,328.552,584.761Z" transform="translate(-180.864 -106.46)" fill="#fff"/>
    <path id="Path_46" data-name="Path 46" d="M841.66,275.663H295.82v-8.4a16.574,16.574,0,0,1,16.56-16.55H825.1a16.574,16.574,0,0,1,16.56,16.55Z" transform="translate(-180.864 -106.46)" fill="#6c63ff"/>
    <circle id="Ellipse_69" data-name="Ellipse 69" cx="4.283" cy="4.283" r="4.283" transform="translate(140.768 152.469)" fill="#fff"/>
    <circle id="Ellipse_70" data-name="Ellipse 70" cx="4.283" cy="4.283" r="4.283" transform="translate(157.027 152.469)" fill="#fff"/>
    <circle id="Ellipse_71" data-name="Ellipse 71" cx="4.283" cy="4.283" r="4.283" transform="translate(173.286 152.469)" fill="#fff"/>
    <path id="Path_47" data-name="Path 47" d="M583.974,528.04h-43a9.511,9.511,0,0,1-9.5-9.5v-43a9.511,9.511,0,0,1,9.5-9.5h43a9.511,9.511,0,0,1,9.5,9.5v43A9.511,9.511,0,0,1,583.974,528.04Zm-43-60a7.508,7.508,0,0,0-7.5,7.5v43a7.508,7.508,0,0,0,7.5,7.5h43a7.508,7.508,0,0,0,7.5-7.5v-43a7.508,7.508,0,0,0-7.5-7.5Z" transform="translate(-180.864 -106.46)" fill="#ccc"/>
    <path id="Path_48" data-name="Path 48" d="M575.474,516.04h-26a3,3,0,0,1-3-3v-32a3,3,0,0,1,3-3h18.839a3.008,3.008,0,0,1,1.879.662l7.16,5.754a2.984,2.984,0,0,1,1.121,2.338V513.04A3,3,0,0,1,575.474,516.04Zm-26-36a1,1,0,0,0-1,1v32a1,1,0,0,0,1,1h26a1,1,0,0,0,1-1V486.794a.994.994,0,0,0-.373-.779l-7.161-5.754a1,1,0,0,0-.626-.22Z" transform="translate(-180.864 -106.46)" fill="#ccc"/>
    <path id="Path_49" data-name="Path 49" d="M570.474,492.04h-16a1,1,0,0,1,0-2h16a1,1,0,0,1,0,2Z" transform="translate(-180.864 -106.46)" fill="#ccc"/>
    <path id="Path_50" data-name="Path 50" d="M570.474,498.04h-16a1,1,0,0,1,0-2h16a1,1,0,0,1,0,2Z" transform="translate(-180.864 -106.46)" fill="#ccc"/>
    <path id="Path_51" data-name="Path 51" d="M570.474,504.04h-16a1,1,0,0,1,0-2h16a1,1,0,0,1,0,2Z" transform="translate(-180.864 -106.46)" fill="#ccc"/>
    <path id="Path_52" data-name="Path 52" d="M685.974,528.04h-43a9.511,9.511,0,0,1-9.5-9.5v-43a9.511,9.511,0,0,1,9.5-9.5h43a9.511,9.511,0,0,1,9.5,9.5v43A9.511,9.511,0,0,1,685.974,528.04Zm-43-60a7.508,7.508,0,0,0-7.5,7.5v43a7.508,7.508,0,0,0,7.5,7.5h43a7.508,7.508,0,0,0,7.5-7.5v-43a7.508,7.508,0,0,0-7.5-7.5Z" transform="translate(-180.864 -106.46)" fill="#ccc"/>
    <path id="Path_53" data-name="Path 53" d="M678.474,508.04h-28a3,3,0,0,1-3-3v-16a3,3,0,0,1,3-3h28a3,3,0,0,1,3,3v16A3,3,0,0,1,678.474,508.04Zm-28-20a1,1,0,0,0-1,1v16a1,1,0,0,0,1,1h28a1,1,0,0,0,1-1v-16a1,1,0,0,0-1-1Z" transform="translate(-180.864 -106.46)" fill="#ccc"/>
    <path id="Path_54" data-name="Path 54" d="M664.474,499.678a3,3,0,0,1-1.59-.453l-14.94-9.337a1,1,0,1,1,1.061-1.7l14.94,9.337a1.006,1.006,0,0,0,1.06,0l14.94-9.337a1,1,0,0,1,1.061,1.7l-14.94,9.337a3,3,0,0,1-1.591.453Z" transform="translate(-180.864 -106.46)" fill="#ccc"/>
    <path id="Path_55" data-name="Path 55" d="M481.974,528.04h-43a9.511,9.511,0,0,1-9.5-9.5v-43a9.511,9.511,0,0,1,9.5-9.5h43a9.511,9.511,0,0,1,9.5,9.5v43A9.511,9.511,0,0,1,481.974,528.04Zm-43-60a7.508,7.508,0,0,0-7.5,7.5v43a7.508,7.508,0,0,0,7.5,7.5h43a7.508,7.508,0,0,0,7.5-7.5v-43a7.508,7.508,0,0,0-7.5-7.5Z" transform="translate(-180.864 -106.46)" fill="#ccc"/>
    <path id="Path_56" data-name="Path 56" d="M474.474,508.04h-28a3,3,0,0,1-3-3v-16a3,3,0,0,1,3-3h28a3,3,0,0,1,3,3v16A3,3,0,0,1,474.474,508.04Zm-28-20a1,1,0,0,0-1,1v16a1,1,0,0,0,1,1h28a1,1,0,0,0,1-1v-16a1,1,0,0,0-1-1Z" transform="translate(-180.864 -106.46)" fill="#ccc"/>
    <path id="Path_57" data-name="Path 57" d="M470.036,508.04H449.912a2,2,0,0,1-1.732-3l6.061-10.5a2,2,0,0,1,3.464,0l3.915,6.781,2.268-3.929a2,2,0,0,1,3.464,0l4.415,7.647a2,2,0,0,1-1.732,3Zm0-2h0l-4.415-7.647-3.134,5.429a1,1,0,0,1-.866.5h0a1,1,0,0,1-.866-.5l-4.781-8.281-6.062,10.5Z" transform="translate(-180.864 -106.46)" fill="#ccc"/>
    <circle id="Ellipse_72" data-name="Ellipse 72" cx="2" cy="2" r="2" transform="translate(288.61 383.579)" fill="#ccc"/>
    <path id="Path_58" data-name="Path 58" d="M768.825,648.15h-12.26l-5.832-47.288h18.094Z" fill="#ffb8b8"/>
    <path id="Path_59" data-name="Path 59" d="M952.816,766.494H913.285v-.5a15.386,15.386,0,0,1,15.387-15.386h24.145Z" transform="translate(-180.864 -106.46)" fill="#2f2e41"/>
    <path id="Path_60" data-name="Path 60" d="M818.825,648.15h-12.26l-5.832-47.288h18.094Z" fill="#ffb8b8"/>
    <path id="Path_61" data-name="Path 61" d="M1002.82,766.494H963.289v-.5a15.386,15.386,0,0,1,15.387-15.386h24.145Z" transform="translate(-180.864 -106.46)" fill="#2f2e41"/>
    <path id="Path_62" data-name="Path 62" d="M996.014,734.111l-11.354-3.454a4.493,4.493,0,0,1-3.166-3.833L970.908,626.5a.48.48,0,0,0-.479-.447.469.469,0,0,0-.511.409l-17.731,97.2a4.5,4.5,0,0,1-5.335,3.6l-14.511-2.989a4.516,4.516,0,0,1-3.582-4.712l10.785-159.313,73.138-7.892-10.868,177.727a4.5,4.5,0,0,1-5.8,4.032Z" transform="translate(-180.864 -106.46)" fill="#2f2e41"/>
    <circle id="Ellipse_73" data-name="Ellipse 73" cx="24.561" cy="24.561" r="24.561" transform="translate(790.519 265.926)" fill="#ffb8b8"/>
    <path id="Path_63" data-name="Path 63" d="M939.433,561.18l15.858-99.851a37.858,37.858,0,0,1,48.005-30.4h0a37.743,37.743,0,0,1,26.6,43.262l-16.591,89.172Z" transform="translate(-180.864 -106.46)" fill="#6c63ff"/>
    <path id="Path_64" data-name="Path 64" d="M1002.72,579.046a10.056,10.056,0,0,0,1.747-15.32l16.4-31.751-18.465,1.97-12.739,29.849a10.11,10.11,0,0,0,13.061,15.251Z" transform="translate(-180.864 -106.46)" fill="#ffb8b8"/>
    <path id="Path_65" data-name="Path 65" d="M1006.24,558.126a4.506,4.506,0,0,1-2.427-1.151l-6.273-5.8a4.514,4.514,0,0,1-1.092-5.054l12.537-29.718-1.779-58.72a14.5,14.5,0,0,1,28.727,3.919l3.041,36.912a46.373,46.373,0,0,1-8.938,31.4l-19.552,26.432a4.5,4.5,0,0,1-3.2,1.8A4.45,4.45,0,0,1,1006.24,558.126Z" transform="translate(-180.864 -106.46)" fill="#6c63ff"/>
    <path id="Path_66" data-name="Path 66" d="M854.505,383.566a10.056,10.056,0,0,0,13.426,7.582l22.846,27.478,5.385-17.772-22.52-23.369a10.11,10.11,0,0,0-19.137,6.081Z" transform="translate(-180.864 -106.46)" fill="#ffb8b8"/>
    <path id="Path_67" data-name="Path 67" d="M872.4,394.956a4.506,4.506,0,0,1,2.006-1.786l7.784-3.517a4.515,4.515,0,0,1,5.08.965l22.478,23.132,54.766,21.257a14.5,14.5,0,1,1-14.809,24.926l-35.177-11.592A46.373,46.373,0,0,1,889.1,427.87l-16.717-28.311a4.505,4.505,0,0,1-.415-3.646,4.452,4.452,0,0,1,.432-.958Z" transform="translate(-180.864 -106.46)" fill="#6c63ff"/>
    <path id="Path_68" data-name="Path 68" d="M835,375.652l-1,32L815.58,439.663l15.382-35.673Z" opacity="0.1"/>
    <path id="Path_69" data-name="Path 69" d="M993.13,401.563a6.423,6.423,0,0,1-7.03-4.7,9.764,9.764,0,0,0-6.951-7.274c-4.505-1.03-10.012,1.091-13.313-2.322a6.637,6.637,0,0,1-1.575-5.842c.608-3.317,2.981-5.823,5.563-7.828a34.063,34.063,0,0,1,18.866-7.051,67.68,67.68,0,0,1,10.621.528,47.008,47.008,0,0,1,10.864,1.985,25.576,25.576,0,0,1,16,18.68,29.528,29.528,0,0,1-6.057,24.13,31.7,31.7,0,0,1-12.16,9.259,4.744,4.744,0,0,1-3.606.183c-2.957-1.176-2.474-4.839-1.126-7.283,1.443-2.615,3.663-5.146,2.5-8.329a6.3,6.3,0,0,0-3.127-3.366c-2.94-1.5-6.228-1.145-9.389-.78Z" transform="translate(-180.864 -106.46)" fill="#2f2e41"/>
    <path id="Path_70" data-name="Path 70" d="M846.3,415.433h-304a16.519,16.519,0,0,1-16.5-16.5v-65a16.519,16.519,0,0,1,16.5-16.5h304a16.519,16.519,0,0,1,16.5,16.5v65A16.519,16.519,0,0,1,846.3,415.433Z" transform="translate(-180.864 -106.46)" fill="#fff"/>
    <path id="Path_71" data-name="Path 71" d="M846.3,415.933h-304a17.019,17.019,0,0,1-17-17v-65a17.019,17.019,0,0,1,17-17h304a17.019,17.019,0,0,1,17,17v65A17.019,17.019,0,0,1,846.3,415.933Zm-304-97a15.017,15.017,0,0,0-15,15v65a15.017,15.017,0,0,0,15,15h304a15.017,15.017,0,0,0,15-15v-65a15.017,15.017,0,0,0-15-15Z" transform="translate(-180.864 -106.46)" fill="#3f3d56"/>
    <path id="Path_72" data-name="Path 72" d="M809.3,399.433h-230a16.519,16.519,0,0,1-16.5-16.5v-34a16.519,16.519,0,0,1,16.5-16.5h230a16.519,16.519,0,0,1,16.5,16.5v34a16.519,16.519,0,0,1-16.5,16.5Z" transform="translate(-180.864 -106.46)" fill="#f2f2f2"/>
    <circle id="Ellipse_74" data-name="Ellipse 74" cx="19.732" cy="19.732" r="19.732" transform="translate(428.196 235.183)" fill="#ff6584"/>
    <path id="Path_73" data-name="Path 73" d="M795,397.442l-27.852-23.36L739.78,351.126a4,4,0,0,0-5.153.01L707.344,374.2l-6.664,5.633L690.632,371.4l-30.537-25.611a4,4,0,0,0-5.152.01L624.5,371.531l-30.917,26.133a1,1,0,0,0,.648,1.764l63.387-.122,20.064-.039-.2.166,59.808-.115,57.067-.11a1,1,0,0,0,.641-1.766Z" transform="translate(-180.864 -106.46)" fill="#3f3d56"/>
    <path id="Path_74" data-name="Path 74" d="M1056.14,767.933h-192a1,1,0,0,1,0-2h192a1,1,0,0,1,0,2Z" transform="translate(-180.864 -106.46)" fill="#ccc"/>
    <path id="Path_75" data-name="Path 75" d="M784.92,238.373a11.221,11.221,0,0,0-7.25-5.1,10.3,10.3,0,0,0-1.66-.21l-76.19-68.12a9.015,9.015,0,0,0-5.63-2.69,7.67,7.67,0,0,0-1.27-.04,9.055,9.055,0,0,0-5.96,15.48l29.17,25.43,47.9,41.75a11.913,11.913,0,0,0,.35,2.33,11.266,11.266,0,0,0,9.67,8.37,11.092,11.092,0,0,0,6.05-1,11.406,11.406,0,0,0,3.88-2.97c.11-.13.21-.25.31-.39a11.293,11.293,0,0,0,.63-12.84Z" transform="translate(-180.864 -106.46)" fill="#ffb8b8"/>
    <path id="Path_76" data-name="Path 76" d="M654.6,304.023l-.71-28.86-.6-23.95-.41-16.76-.81-32.67a9.046,9.046,0,0,0-15.71-5.25,6.923,6.923,0,0,0-.75.96,8.936,8.936,0,0,0-1.56,6.05l1.78,47.67.89,23.95,1.14,30.55a12.046,12.046,0,0,0-.89,1.41,11.308,11.308,0,1,0,17.63-3.1Z" transform="translate(-180.864 -106.46)" fill="#ffb8b8"/>
    <path id="Path_77" data-name="Path 77" d="M723.2,222.273l-7.07-19.15-11.44-31.02a16.006,16.006,0,0,0-9.95-9.68c-.18-.06-.37-.12-.55-.17a15.984,15.984,0,0,0-13.24,1.82l-38.53,24.44a16.093,16.093,0,0,0-5.27,21.75,276.308,276.308,0,0,0,15.73,24.19c4.49,6.11,12.85,6.76,14.3,16.76h28.41l28.76-25.82Z" transform="translate(-180.864 -106.46)" fill="#ccc"/>
    <circle id="Ellipse_75" data-name="Ellipse 75" cx="23.172" cy="23.172" r="23.172" transform="translate(77.993 303.51)" fill="#a0616a"/>
    <path id="Path_78" data-name="Path 78" d="M338.915,417.193q.342.273.664.578a10.38,10.38,0,0,1-.417,15.484,9.729,9.729,0,0,1-.814.613l1.568,52.945a8.061,8.061,0,0,1-5.545,7.867l-.1.021-42.989,4.578a8.9,8.9,0,1,1-1.722-17.713l30.644-2.7,5.3-45.851a9.882,9.882,0,0,1-.972-.99,10.38,10.38,0,0,1,14.378-14.833Z" transform="translate(-180.864 -106.46)" fill="#a0616a"/>
    <path id="Path_79" data-name="Path 79" d="M139.328,649.174H150.9l5.5-44.613H139.326Z" fill="#a0616a"/>
    <path id="Path_80" data-name="Path 80" d="M317.242,751.858h22.779a14.516,14.516,0,0,1,14.516,14.516v.471H317.243Z" transform="translate(-180.864 -106.46)" fill="#2f2e41"/>
    <path id="Path_81" data-name="Path 81" d="M24.366,633.182,34.3,639.1l27.553-35.517-14.668-8.733Z" fill="#a0616a"/>
    <path id="Path_82" data-name="Path 82" d="M204.627,734.889,224.2,746.542h0a14.516,14.516,0,0,1,5.046,19.9l-.241.405-32.044-19.08Z" transform="translate(-180.864 -106.46)" fill="#2f2e41"/>
    <path id="Path_83" data-name="Path 83" d="M334.488,739.877H321.536a4.238,4.238,0,0,1-4.221-3.8L304.258,613.343a1.415,1.415,0,0,0-2.7-.433l-23.555,52.159-41.7,68a4.266,4.266,0,0,1-5.329,1.666l-16.66-7.33a4.247,4.247,0,0,1-1.935-6.064l38.337-64.192,11.758-54.085c-3.7-23.455,12.155-58.326,12.316-58.676l.079-.17,43.668-17.068.219.268c17.221,56.514,27.715,117.332,19.967,208.568a4.274,4.274,0,0,1-4.232,3.889Z" transform="translate(-180.864 -106.46)" fill="#2f2e41"/>
    <path id="Path_84" data-name="Path 84" d="M273.107,549.934l-.2-.427c-.1-.2-9.807-20.684-17.292-42.572a32.285,32.285,0,0,1,2.239-25.873,32.637,32.637,0,0,1,20.813-16h0a32.677,32.677,0,0,1,37.928,19.57c5.937,14.847,4.045,30.694,2.264,43.157l-.035.25-.227.109Z" transform="translate(-180.864 -106.46)" fill="#3f3d56"/>
    <path id="Path_85" data-name="Path 85" d="M310.124,420.054H273.33V404.015c8.076-3.208,15.978-5.937,20.755,0a16.038,16.038,0,0,1,16.038,16.038Z" transform="translate(-180.864 -106.46)" fill="#2f2e41"/>
    <path id="Path_86" data-name="Path 86" d="M271.293,401.185c-22,0-28.153,27.571-28.153,43.125,0,8.674,3.923,11.777,10.087,12.827l2.177-11.611,5.1,12.111c1.732.009,3.551-.025,5.437-.06l1.729-3.56,3.855,3.5c15.441.023,27.921,2.274,27.921-13.2C299.445,428.756,294.046,401.185,271.293,401.185Z" transform="translate(-180.864 -106.46)" fill="#2f2e41"/>
    <path id="Path_87" data-name="Path 87" d="M373.864,767.933h-192a1,1,0,0,1,0-2h192a1,1,0,0,1,0,2Z" transform="translate(-180.864 -106.46)" fill="#ccc"/>
    <path id="Path_88" data-name="Path 88" d="M377.474,438.933h-43a9.511,9.511,0,0,1-9.5-9.5v-43a9.511,9.511,0,0,1,9.5-9.5h43a9.511,9.511,0,0,1,9.5,9.5v43A9.511,9.511,0,0,1,377.474,438.933Z" transform="translate(-180.864 -106.46)" fill="#fff"/>
    <path id="Path_89" data-name="Path 89" d="M377.474,438.933h-43a9.511,9.511,0,0,1-9.5-9.5v-43a9.511,9.511,0,0,1,9.5-9.5h43a9.511,9.511,0,0,1,9.5,9.5v43A9.511,9.511,0,0,1,377.474,438.933Zm-43-60a7.508,7.508,0,0,0-7.5,7.5v43a7.508,7.508,0,0,0,7.5,7.5h43a7.508,7.508,0,0,0,7.5-7.5v-43a7.508,7.508,0,0,0-7.5-7.5Z" transform="translate(-180.864 -106.46)" fill="#3f3d56"/>
    <path id="Path_90" data-name="Path 90" d="M369.974,421.433h-28a3,3,0,0,1-3-3v-21a3,3,0,0,1,3-3h7.882a2.981,2.981,0,0,1,2.555,1.427l2.2,3.573h15.364a3,3,0,0,1,3,3v16a3,3,0,0,1-3,3Z" transform="translate(-180.864 -106.46)" fill="#6c63ff"/>
    <path id="Path_91" data-name="Path 91" d="M369.064,432.042q.21.384.388.79a10.38,10.38,0,0,1-6.393,14.108,9.715,9.715,0,0,1-.988.25l-19.1,49.4a8.061,8.061,0,0,1-8.163,5.1l-.1-.018-41.4-12.462A8.9,8.9,0,1,1,298.6,472.22l29.29,9.4,22.676-40.2a9.873,9.873,0,0,1-.511-1.289,10.38,10.38,0,0,1,19.007-8.091Z" transform="translate(-180.864 -106.46)" fill="#a0616a"/>
  </g>
</svg>
